<?xml version="1.0" encoding="UTF-8"?>
<svg version="1.1" xmlns="http://www.w3.org/2000/svg" width="1785" height="1785">
<path d="M0 0 C0.8494519 0.00021149 1.69890381 0.00042297 2.57409668 0.00064087 C17.04008831 0.03640415 30.91894494 1.16448371 45.0625 4.375 C45.90570801 4.56223633 46.74891602 4.74947266 47.61767578 4.94238281 C88.99984924 14.37742059 126.49135455 34.71280065 157.75 63.28515625 C159.71235514 65.05856841 161.70911409 66.75650245 163.75 68.4375 C166.86848119 71.09075323 169.50213575 74.02557414 172.15234375 77.140625 C174.39118217 79.75947076 176.69159427 82.3173298 179 84.875 C179.77214844 85.7309375 180.54429687 86.586875 181.33984375 87.46875 C182.19255859 88.41234375 182.19255859 88.41234375 183.0625 89.375 C187.90040673 87.89902845 192.4696501 85.94728435 197.10644531 83.94775391 C212.15555967 77.48689007 227.14660432 72.44672634 243.1875 69.125 C243.91356445 68.97369629 244.63962891 68.82239258 245.38769531 68.66650391 C260.25017979 65.80584737 275.15186632 64.99294135 290.25 65.0625 C291.5250087 65.06573273 291.5250087 65.06573273 292.82577515 65.06903076 C306.42839732 65.1241337 319.68384199 65.73131309 333.0625 68.375 C334.10116211 68.57899414 335.13982422 68.78298828 336.20996094 68.99316406 C389.23068277 79.72857105 438.10615812 107.85714588 471.0625 151.375 C471.83110352 152.36959229 471.83110352 152.36959229 472.61523438 153.38427734 C481.45746758 164.85044578 489.21634863 176.61549939 496.0625 189.375 C496.42537109 190.05095215 496.78824219 190.7269043 497.16210938 191.42333984 C499.59559315 196.01294502 501.87212756 200.66489984 504.0625 205.375 C504.60753174 206.54554932 504.60753174 206.54554932 505.16357422 207.73974609 C517.49670739 234.56759782 524.90183621 262.93192473 527.0625 292.375 C527.81789063 292.34019531 528.57328125 292.30539062 529.3515625 292.26953125 C576.08046974 291.12045976 623.8987627 311.91609836 660.0625 340.375 C661.031875 341.13296875 662.00125 341.8909375 663 342.671875 C678.01698739 354.70252967 692.28072128 368.13723286 704.0625 383.375 C704.75859375 384.26445313 704.75859375 384.26445313 705.46875 385.171875 C712.75703756 394.50999343 719.27780681 404.03884541 725.0625 414.375 C725.4347168 415.03048828 725.80693359 415.68597656 726.19042969 416.36132812 C760.06646407 476.37360387 763.8298998 550.08927829 745.7890625 615.68359375 C743.7997789 622.51629917 741.28505959 629.13906044 738.60253906 635.72705078 C738.2722168 636.54286621 737.94189453 637.35868164 737.6015625 638.19921875 C737.30459473 638.91166748 737.00762695 639.62411621 736.70166016 640.3581543 C735.86109787 642.65789992 735.86109787 642.65789992 736.0625 646.375 C737.98748668 648.33538764 737.98748668 648.33538764 740.625 650.1875 C752.1113825 659.18393119 762.15522753 669.84207631 771.0625 681.375 C771.8359375 682.33148437 772.609375 683.28796875 773.40625 684.2734375 C803.84275779 722.51170836 823.18895847 770.80959192 828.0625 819.375 C828.22878906 821.01662109 828.22878906 821.01662109 828.3984375 822.69140625 C834.28840375 891.38114781 809.51709074 959.16515002 765.75146484 1011.60009766 C761.02250364 1017.19026806 756.08799142 1022.54565568 750.9375 1027.75 C750.3808667 1028.31589844 749.8242334 1028.88179687 749.25073242 1029.46484375 C745.30933902 1033.375 745.30933902 1033.375 743.0625 1033.375 C743.22331055 1033.90641602 743.38412109 1034.43783203 743.54980469 1034.98535156 C751.74029238 1062.26750385 756.29603775 1089.31880529 756.25 1117.875 C756.24939575 1118.57365173 756.2487915 1119.27230347 756.24816895 1119.99212646 C756.11717733 1176.10925293 738.8559634 1229.17789784 704.0625 1273.375 C703.64484375 1273.91125 703.2271875 1274.4475 702.796875 1275 C690.53669375 1290.60386705 675.94675617 1305.53448393 659.80664062 1317.11816406 C657.91925137 1318.47822564 656.06221589 1319.87498189 654.203125 1321.2734375 C643.11674147 1329.4841992 631.31030134 1336.0639902 619.0625 1342.375 C618.4010498 1342.72401367 617.73959961 1343.07302734 617.05810547 1343.43261719 C599.23833485 1352.78469861 578.85945315 1358.93055618 559.0625 1362.375 C557.79792969 1362.59800781 556.53335937 1362.82101562 555.23046875 1363.05078125 C545.81087885 1364.50070765 536.5616496 1364.58428359 527.0625 1364.375 C526.93294922 1366.14037109 526.93294922 1366.14037109 526.80078125 1367.94140625 C522.08915065 1425.52274105 495.99745137 1480.86655788 456.0625 1522.375 C455.46276367 1523.00196777 454.86302734 1523.62893555 454.24511719 1524.27490234 C445.4196832 1533.45344253 436.42857364 1541.96256951 426.0625 1549.375 C425.39557129 1549.85388672 424.72864258 1550.33277344 424.04150391 1550.82617188 C374.2627466 1586.16414959 311.40816493 1598.92071493 251.33203125 1589.375 C229.41419761 1585.5443185 207.25384531 1579.64946495 187.81640625 1568.515625 C185.20838874 1567.11925175 185.20838874 1567.11925175 182.93359375 1567.88671875 C180.58409423 1569.75552734 178.94749573 1571.79831654 177.125 1574.1875 C168.61055122 1584.85502778 158.79670815 1593.96727318 148.0625 1602.375 C147.01791935 1603.23110993 145.97501786 1604.08927179 144.93359375 1604.94921875 C123.11925559 1622.79234411 97.72545452 1636.3833495 71.0625 1645.375 C70.23153809 1645.65569336 69.40057617 1645.93638672 68.54443359 1646.22558594 C12.74755148 1664.71926266 -46.94145569 1659.46005661 -99.60986328 1633.55175781 C-123.1649713 1621.64325974 -145.66323962 1606.56807794 -163.9375 1587.375 C-164.72125 1586.59125 -165.505 1585.8075 -166.3125 1585 C-167.17875 1584.13375 -168.045 1583.2675 -168.9375 1582.375 C-169.64132812 1581.68277344 -170.34515625 1580.99054688 -171.0703125 1580.27734375 C-171.85148438 1579.50519531 -172.63265625 1578.73304687 -173.4375 1577.9375 C-174.1696875 1577.21691406 -174.901875 1576.49632812 -175.65625 1575.75390625 C-178.23535413 1573.06439527 -180.57982809 1570.25982742 -182.9375 1567.375 C-183.55455811 1567.64127197 -184.17161621 1567.90754395 -184.80737305 1568.18188477 C-247.21227052 1594.98121556 -313.96639923 1601.34172247 -378.31884766 1575.82299805 C-414.40277501 1560.94032374 -447.08095491 1536.40086953 -470.9375 1505.375 C-471.34790527 1504.84632324 -471.75831055 1504.31764648 -472.18115234 1503.77294922 C-503.22095377 1463.56468334 -521.96704394 1415.86436941 -526.9375 1365.375 C-527.93040039 1365.32339722 -527.93040039 1365.32339722 -528.94335938 1365.27075195 C-579.09342965 1362.48799255 -626.33675857 1344.84012975 -664.9375 1312.375 C-665.43894531 1311.96233887 -665.94039062 1311.54967773 -666.45703125 1311.12451172 C-680.16058006 1299.84524825 -693.2032941 1287.55596926 -703.9375 1273.375 C-704.56035889 1272.56675781 -704.56035889 1272.56675781 -705.19580078 1271.7421875 C-746.8169168 1217.60287217 -761.43442224 1150.62591457 -753.9375 1083.375 C-752.31369526 1071.04928884 -749.79206171 1058.94140584 -746.6003418 1046.93017578 C-746.20328334 1045.4347526 -745.8183259 1043.93604371 -745.44775391 1042.43383789 C-744.97062642 1040.50866273 -744.44600075 1038.59543376 -743.91796875 1036.68359375 C-743.59023053 1033.14584892 -743.59023053 1033.14584892 -746.4375 1030.34765625 C-747.58659092 1029.35684738 -748.7545067 1028.38757316 -749.9375 1027.4375 C-751.15491008 1026.38969311 -752.36977575 1025.33892244 -753.58203125 1024.28515625 C-754.16807129 1023.78387207 -754.75411133 1023.28258789 -755.35791016 1022.76611328 C-758.57203306 1019.93549933 -761.22459966 1016.67364019 -763.9375 1013.375 C-764.6696875 1012.53066406 -765.401875 1011.68632813 -766.15625 1010.81640625 C-796.44315326 975.49765989 -816.05282149 931.85788005 -824.9375 886.375 C-825.1852417 885.17327148 -825.1852417 885.17327148 -825.43798828 883.94726562 C-831.07990357 855.63850348 -829.9349933 823.50023114 -823.9375 795.375 C-823.61604004 793.85084473 -823.61604004 793.85084473 -823.28808594 792.29589844 C-813.72330658 748.31462042 -793.63635434 706.44262642 -763.35791016 672.94677734 C-761.94902105 671.3877488 -760.55771299 669.81437644 -759.16796875 668.23828125 C-753.62361767 662.01027177 -747.77595044 656.30634314 -741.56640625 650.75 C-739.28243082 648.68661655 -737.09034066 646.57364578 -734.9375 644.375 C-735.173479 643.79459961 -735.40945801 643.21419922 -735.65258789 642.61621094 C-747.86943582 612.22062224 -755.18004541 580.2090099 -755.9375 547.375 C-755.95796387 546.7051709 -755.97842773 546.0353418 -755.99951172 545.34521484 C-757.77696341 482.66433573 -737.72524918 420.06590142 -694.98828125 373.609375 C-693.07364309 371.52333114 -691.21927042 369.39817954 -689.375 367.25 C-683.40447544 360.41278639 -676.89754313 354.19368557 -669.9375 348.375 C-669.17421387 347.73304688 -669.17421387 347.73304688 -668.39550781 347.078125 C-654.04217965 335.07442264 -638.4883968 325.08026605 -621.9375 316.375 C-621.24027832 316.00665039 -620.54305664 315.63830078 -619.82470703 315.25878906 C-591.09175294 300.31220839 -558.42885449 291.44814678 -525.9375 292.375 C-525.95562744 291.78146729 -525.97375488 291.18793457 -525.99243164 290.57641602 C-526.10431032 284.00370325 -525.47662199 277.78642295 -524.375 271.3125 C-524.19936523 270.27955811 -524.02373047 269.24661621 -523.84277344 268.18237305 C-516.35095542 226.4453919 -498.2600897 186.55982542 -471.9375 153.375 C-471.16792969 152.39273438 -470.39835937 151.41046875 -469.60546875 150.3984375 C-456.3195741 133.78508455 -441.22512336 118.80032035 -423.9375 106.375 C-423.39109863 105.97748535 -422.84469727 105.5799707 -422.28173828 105.17041016 C-391.89529162 83.27701498 -355.91229999 70.95847913 -318.9375 66.375 C-318.24390381 66.2807373 -317.55030762 66.18647461 -316.83569336 66.08935547 C-269.97338583 60.45277023 -224.23837202 70.45550577 -181.9375 90.375 C-181.65624268 89.77228271 -181.37498535 89.16956543 -181.08520508 88.54858398 C-179.42786582 85.40982809 -177.04157691 83.00044274 -174.625 80.4375 C-174.09374512 79.87047363 -173.56249023 79.30344727 -173.01513672 78.71923828 C-171.33007571 76.93055712 -169.63518766 75.15169524 -167.9375 73.375 C-167.14061768 72.53509521 -167.14061768 72.53509521 -166.32763672 71.67822266 C-158.9696289 63.96128763 -151.26395784 57.09149612 -142.72021484 50.71337891 C-140.94994753 49.38434503 -139.20286106 48.02888349 -137.45703125 46.66796875 C-98.47273277 16.68872103 -49.05791425 -0.11361008 0 0 Z " fill="#FEFEFE" transform="translate(891.9375,63.625)"/>
<path d="M0 0 C0.8494519 0.00021149 1.69890381 0.00042297 2.57409668 0.00064087 C17.04008831 0.03640415 30.91894494 1.16448371 45.0625 4.375 C45.90570801 4.56223633 46.74891602 4.74947266 47.61767578 4.94238281 C88.99984924 14.37742059 126.49135455 34.71280065 157.75 63.28515625 C159.71235514 65.05856841 161.70911409 66.75650245 163.75 68.4375 C166.86848119 71.09075323 169.50213575 74.02557414 172.15234375 77.140625 C174.39118217 79.75947076 176.69159427 82.3173298 179 84.875 C179.77214844 85.7309375 180.54429687 86.586875 181.33984375 87.46875 C182.19255859 88.41234375 182.19255859 88.41234375 183.0625 89.375 C187.90040673 87.89902845 192.4696501 85.94728435 197.10644531 83.94775391 C212.15555967 77.48689007 227.14660432 72.44672634 243.1875 69.125 C243.91356445 68.97369629 244.63962891 68.82239258 245.38769531 68.66650391 C260.25017979 65.80584737 275.15186632 64.99294135 290.25 65.0625 C291.5250087 65.06573273 291.5250087 65.06573273 292.82577515 65.06903076 C306.42839732 65.1241337 319.68384199 65.73131309 333.0625 68.375 C334.10116211 68.57899414 335.13982422 68.78298828 336.20996094 68.99316406 C389.23068277 79.72857105 438.10615812 107.85714588 471.0625 151.375 C471.83110352 152.36959229 471.83110352 152.36959229 472.61523438 153.38427734 C481.45746758 164.85044578 489.21634863 176.61549939 496.0625 189.375 C496.42537109 190.05095215 496.78824219 190.7269043 497.16210938 191.42333984 C499.59559315 196.01294502 501.87212756 200.66489984 504.0625 205.375 C504.60753174 206.54554932 504.60753174 206.54554932 505.16357422 207.73974609 C517.49670739 234.56759782 524.90183621 262.93192473 527.0625 292.375 C527.81789063 292.34019531 528.57328125 292.30539062 529.3515625 292.26953125 C576.08046974 291.12045976 623.8987627 311.91609836 660.0625 340.375 C661.031875 341.13296875 662.00125 341.8909375 663 342.671875 C678.01698739 354.70252967 692.28072128 368.13723286 704.0625 383.375 C704.75859375 384.26445313 704.75859375 384.26445313 705.46875 385.171875 C712.75703756 394.50999343 719.27780681 404.03884541 725.0625 414.375 C725.4347168 415.03048828 725.80693359 415.68597656 726.19042969 416.36132812 C760.06646407 476.37360387 763.8298998 550.08927829 745.7890625 615.68359375 C743.7997789 622.51629917 741.28505959 629.13906044 738.60253906 635.72705078 C738.2722168 636.54286621 737.94189453 637.35868164 737.6015625 638.19921875 C737.30459473 638.91166748 737.00762695 639.62411621 736.70166016 640.3581543 C735.86109787 642.65789992 735.86109787 642.65789992 736.0625 646.375 C737.98748668 648.33538764 737.98748668 648.33538764 740.625 650.1875 C752.1113825 659.18393119 762.15522753 669.84207631 771.0625 681.375 C771.8359375 682.33148437 772.609375 683.28796875 773.40625 684.2734375 C803.84275779 722.51170836 823.18895847 770.80959192 828.0625 819.375 C828.22878906 821.01662109 828.22878906 821.01662109 828.3984375 822.69140625 C834.28840375 891.38114781 809.51709074 959.16515002 765.75146484 1011.60009766 C761.02250364 1017.19026806 756.08799142 1022.54565568 750.9375 1027.75 C750.3808667 1028.31589844 749.8242334 1028.88179687 749.25073242 1029.46484375 C745.30933902 1033.375 745.30933902 1033.375 743.0625 1033.375 C743.22331055 1033.90641602 743.38412109 1034.43783203 743.54980469 1034.98535156 C751.74029238 1062.26750385 756.29603775 1089.31880529 756.25 1117.875 C756.24939575 1118.57365173 756.2487915 1119.27230347 756.24816895 1119.99212646 C756.11717733 1176.10925293 738.8559634 1229.17789784 704.0625 1273.375 C703.64484375 1273.91125 703.2271875 1274.4475 702.796875 1275 C690.53669375 1290.60386705 675.94675617 1305.53448393 659.80664062 1317.11816406 C657.91925137 1318.47822564 656.06221589 1319.87498189 654.203125 1321.2734375 C643.11674147 1329.4841992 631.31030134 1336.0639902 619.0625 1342.375 C618.4010498 1342.72401367 617.73959961 1343.07302734 617.05810547 1343.43261719 C599.23833485 1352.78469861 578.85945315 1358.93055618 559.0625 1362.375 C557.79792969 1362.59800781 556.53335937 1362.82101562 555.23046875 1363.05078125 C545.81087885 1364.50070765 536.5616496 1364.58428359 527.0625 1364.375 C526.93294922 1366.14037109 526.93294922 1366.14037109 526.80078125 1367.94140625 C522.08915065 1425.52274105 495.99745137 1480.86655788 456.0625 1522.375 C455.46276367 1523.00196777 454.86302734 1523.62893555 454.24511719 1524.27490234 C445.4196832 1533.45344253 436.42857364 1541.96256951 426.0625 1549.375 C425.39557129 1549.85388672 424.72864258 1550.33277344 424.04150391 1550.82617188 C374.2627466 1586.16414959 311.40816493 1598.92071493 251.33203125 1589.375 C229.41419761 1585.5443185 207.25384531 1579.64946495 187.81640625 1568.515625 C185.20838874 1567.11925175 185.20838874 1567.11925175 182.93359375 1567.88671875 C180.58409423 1569.75552734 178.94749573 1571.79831654 177.125 1574.1875 C168.61055122 1584.85502778 158.79670815 1593.96727318 148.0625 1602.375 C147.01791935 1603.23110993 145.97501786 1604.08927179 144.93359375 1604.94921875 C123.11925559 1622.79234411 97.72545452 1636.3833495 71.0625 1645.375 C70.23153809 1645.65569336 69.40057617 1645.93638672 68.54443359 1646.22558594 C12.74755148 1664.71926266 -46.94145569 1659.46005661 -99.60986328 1633.55175781 C-123.1649713 1621.64325974 -145.66323962 1606.56807794 -163.9375 1587.375 C-164.72125 1586.59125 -165.505 1585.8075 -166.3125 1585 C-167.17875 1584.13375 -168.045 1583.2675 -168.9375 1582.375 C-169.64132812 1581.68277344 -170.34515625 1580.99054688 -171.0703125 1580.27734375 C-171.85148438 1579.50519531 -172.63265625 1578.73304687 -173.4375 1577.9375 C-174.1696875 1577.21691406 -174.901875 1576.49632812 -175.65625 1575.75390625 C-178.23535413 1573.06439527 -180.57982809 1570.25982742 -182.9375 1567.375 C-183.55455811 1567.64127197 -184.17161621 1567.90754395 -184.80737305 1568.18188477 C-247.21227052 1594.98121556 -313.96639923 1601.34172247 -378.31884766 1575.82299805 C-414.40277501 1560.94032374 -447.08095491 1536.40086953 -470.9375 1505.375 C-471.34790527 1504.84632324 -471.75831055 1504.31764648 -472.18115234 1503.77294922 C-503.22095377 1463.56468334 -521.96704394 1415.86436941 -526.9375 1365.375 C-527.93040039 1365.32339722 -527.93040039 1365.32339722 -528.94335938 1365.27075195 C-579.09342965 1362.48799255 -626.33675857 1344.84012975 -664.9375 1312.375 C-665.43894531 1311.96233887 -665.94039062 1311.54967773 -666.45703125 1311.12451172 C-680.16058006 1299.84524825 -693.2032941 1287.55596926 -703.9375 1273.375 C-704.56035889 1272.56675781 -704.56035889 1272.56675781 -705.19580078 1271.7421875 C-746.8169168 1217.60287217 -761.43442224 1150.62591457 -753.9375 1083.375 C-752.31369526 1071.04928884 -749.79206171 1058.94140584 -746.6003418 1046.93017578 C-746.20328334 1045.4347526 -745.8183259 1043.93604371 -745.44775391 1042.43383789 C-744.97062642 1040.50866273 -744.44600075 1038.59543376 -743.91796875 1036.68359375 C-743.59023053 1033.14584892 -743.59023053 1033.14584892 -746.4375 1030.34765625 C-747.58659092 1029.35684738 -748.7545067 1028.38757316 -749.9375 1027.4375 C-751.15491008 1026.38969311 -752.36977575 1025.33892244 -753.58203125 1024.28515625 C-754.16807129 1023.78387207 -754.75411133 1023.28258789 -755.35791016 1022.76611328 C-758.57203306 1019.93549933 -761.22459966 1016.67364019 -763.9375 1013.375 C-764.6696875 1012.53066406 -765.401875 1011.68632813 -766.15625 1010.81640625 C-796.44315326 975.49765989 -816.05282149 931.85788005 -824.9375 886.375 C-825.1852417 885.17327148 -825.1852417 885.17327148 -825.43798828 883.94726562 C-831.07990357 855.63850348 -829.9349933 823.50023114 -823.9375 795.375 C-823.61604004 793.85084473 -823.61604004 793.85084473 -823.28808594 792.29589844 C-813.72330658 748.31462042 -793.63635434 706.44262642 -763.35791016 672.94677734 C-761.94902105 671.3877488 -760.55771299 669.81437644 -759.16796875 668.23828125 C-753.62361767 662.01027177 -747.77595044 656.30634314 -741.56640625 650.75 C-739.28243082 648.68661655 -737.09034066 646.57364578 -734.9375 644.375 C-735.173479 643.79459961 -735.40945801 643.21419922 -735.65258789 642.61621094 C-747.86943582 612.22062224 -755.18004541 580.2090099 -755.9375 547.375 C-755.95796387 546.7051709 -755.97842773 546.0353418 -755.99951172 545.34521484 C-757.77696341 482.66433573 -737.72524918 420.06590142 -694.98828125 373.609375 C-693.07364309 371.52333114 -691.21927042 369.39817954 -689.375 367.25 C-683.40447544 360.41278639 -676.89754313 354.19368557 -669.9375 348.375 C-669.17421387 347.73304688 -669.17421387 347.73304688 -668.39550781 347.078125 C-654.04217965 335.07442264 -638.4883968 325.08026605 -621.9375 316.375 C-621.24027832 316.00665039 -620.54305664 315.63830078 -619.82470703 315.25878906 C-591.09175294 300.31220839 -558.42885449 291.44814678 -525.9375 292.375 C-525.95562744 291.78146729 -525.97375488 291.18793457 -525.99243164 290.57641602 C-526.10431032 284.00370325 -525.47662199 277.78642295 -524.375 271.3125 C-524.19936523 270.27955811 -524.02373047 269.24661621 -523.84277344 268.18237305 C-516.35095542 226.4453919 -498.2600897 186.55982542 -471.9375 153.375 C-471.16792969 152.39273438 -470.39835937 151.41046875 -469.60546875 150.3984375 C-456.3195741 133.78508455 -441.22512336 118.80032035 -423.9375 106.375 C-423.39109863 105.97748535 -422.84469727 105.5799707 -422.28173828 105.17041016 C-391.89529162 83.27701498 -355.91229999 70.95847913 -318.9375 66.375 C-318.24390381 66.2807373 -317.55030762 66.18647461 -316.83569336 66.08935547 C-269.97338583 60.45277023 -224.23837202 70.45550577 -181.9375 90.375 C-181.65624268 89.77228271 -181.37498535 89.16956543 -181.08520508 88.54858398 C-179.42786582 85.40982809 -177.04157691 83.00044274 -174.625 80.4375 C-174.09374512 79.87047363 -173.56249023 79.30344727 -173.01513672 78.71923828 C-171.33007571 76.93055712 -169.63518766 75.15169524 -167.9375 73.375 C-167.14061768 72.53509521 -167.14061768 72.53509521 -166.32763672 71.67822266 C-158.9696289 63.96128763 -151.26395784 57.09149612 -142.72021484 50.71337891 C-140.94994753 49.38434503 -139.20286106 48.02888349 -137.45703125 46.66796875 C-98.47273277 16.68872103 -49.05791425 -0.11361008 0 0 Z M-139.3984375 185.625 C-142.79969467 189.30882315 -145.91290166 193.18407469 -148.96484375 197.16015625 C-151.93057873 200.49000127 -153.73447066 201.23501113 -158.16015625 201.75 C-162.93197592 201.2762723 -166.18068662 199.58561933 -170.375 197.375 C-214.10123706 175.64373023 -265.48594091 173.62794228 -311.63916016 188.6015625 C-337.09799126 197.16897029 -359.47490612 210.90662531 -378.9375 229.375 C-379.89398437 230.27863281 -380.85046875 231.18226563 -381.8359375 232.11328125 C-389.30895412 239.30482149 -395.77716248 247.04183025 -401.9375 255.375 C-402.68515625 256.37789062 -403.4328125 257.38078125 -404.203125 258.4140625 C-426.68720961 289.71384935 -440.77911032 327.00387095 -444.3828125 365.4140625 C-445.12548555 369.37847216 -446.36962181 372.17539087 -449.6171875 374.66015625 C-453.05793642 375.72018496 -456.49299864 375.71925681 -460.0625 375.8125 C-507.01357282 377.85054616 -549.49544093 400.30160388 -582.9375 432.375 C-583.88625 433.27089844 -584.835 434.16679687 -585.8125 435.08984375 C-620.91827688 469.04869894 -641.33909528 518.19953708 -642.2734375 566.8359375 C-642.31407936 570.1408935 -642.32071767 573.44482873 -642.3125 576.75 C-642.31118576 578.05360474 -642.31118576 578.05360474 -642.30984497 579.38354492 C-642.21219322 608.93722289 -637.30122304 639.64755393 -623.9375 666.375 C-623.8828125 668.36328125 -623.8828125 668.36328125 -624.0625 670.6875 C-624.10632813 671.44675781 -624.15015625 672.20601562 -624.1953125 672.98828125 C-625.27118048 676.44804618 -627.25846338 677.94634063 -629.9375 680.375 C-631.15067771 681.50159478 -632.3628469 682.62927619 -633.57421875 683.7578125 C-634.22874023 684.36165771 -634.88326172 684.96550293 -635.55761719 685.58764648 C-674.44395652 721.55796958 -702.87356183 773.47773108 -705.09863281 827.27050781 C-705.11813008 828.62297877 -705.13191565 829.97554155 -705.140625 831.328125 C-705.14763931 832.06185837 -705.15465363 832.79559174 -705.16188049 833.55155945 C-705.17929782 835.90943612 -705.18573402 838.26706133 -705.1875 840.625 C-705.18817474 841.43212433 -705.18884949 842.23924866 -705.18954468 843.0708313 C-705.17312452 855.43459837 -704.54664886 867.25735977 -701.9375 879.375 C-701.7818457 880.17728027 -701.62619141 880.97956055 -701.46582031 881.80615234 C-694.64725046 916.89933071 -677.80812659 951.67920491 -653.9375 978.375 C-653.23778076 979.16293945 -653.23778076 979.16293945 -652.52392578 979.96679688 C-647.15001241 985.99497082 -641.79936343 991.86883436 -635.4609375 996.91015625 C-632.49986145 999.75734476 -631.98297747 1001.83399532 -631.63671875 1005.953125 C-631.77666268 1011.22475181 -633.29874928 1016.08805547 -634.75 1021.125 C-637.68267702 1031.79561111 -639.64845067 1042.39144742 -640.9375 1053.375 C-641.0310376 1054.1064624 -641.1245752 1054.8379248 -641.22094727 1055.59155273 C-644.66100575 1085.1463306 -641.90088508 1116.04474411 -632.9375 1144.375 C-632.70224609 1145.12587891 -632.46699219 1145.87675781 -632.22460938 1146.65039062 C-625.78372151 1166.68682016 -615.71207424 1185.66108822 -602.9375 1202.375 C-602.52773926 1202.9117334 -602.11797852 1203.4484668 -601.69580078 1204.00146484 C-584.74110566 1225.80229238 -563.71842271 1243.51644137 -539.9375 1257.375 C-539.3379248 1257.72900879 -538.73834961 1258.08301758 -538.12060547 1258.44775391 C-522.49582903 1267.57755884 -505.54791809 1273.45294437 -487.9375 1277.375 C-486.75027344 1277.71917969 -485.56304687 1278.06335937 -484.33984375 1278.41796875 C-477.30416771 1280.1957963 -469.88679917 1280.13033346 -462.671875 1280.49804688 C-460.92777344 1280.60536133 -460.92777344 1280.60536133 -459.1484375 1280.71484375 C-458.09962402 1280.77019287 -457.05081055 1280.82554199 -455.97021484 1280.88256836 C-452.43093869 1281.45725199 -449.97665141 1282.47749592 -446.9375 1284.375 C-444.81102704 1287.33781481 -444.49836374 1290.39587614 -444.04296875 1293.96875 C-443.89504883 1295.07138184 -443.74712891 1296.17401367 -443.59472656 1297.31005859 C-443.4397168 1298.48648926 -443.28470703 1299.66291992 -443.125 1300.875 C-436.51153645 1347.60972885 -415.84212823 1390.47037177 -382.375 1423.9375 C-380.85193175 1425.46056825 -379.35353761 1427.00920772 -377.89453125 1428.59375 C-351.50715691 1456.66337954 -313.1740576 1470.86351477 -275.9375 1476.375 C-274.83156494 1476.5507959 -273.72562988 1476.7265918 -272.58618164 1476.90771484 C-235.90400766 1481.60558577 -197.50629181 1474.24833593 -164.80859375 1457.26953125 C-162.55893811 1456.19401739 -160.92092511 1456.10799024 -158.4375 1456.125 C-157.6846875 1456.11984375 -156.931875 1456.1146875 -156.15625 1456.109375 C-152.5263794 1456.54393697 -150.59306049 1457.62931811 -148.17578125 1460.37890625 C-147.54027344 1461.22324219 -146.90476562 1462.06757812 -146.25 1462.9375 C-114.09939933 1503.08628611 -66.07322669 1527.5853631 -15.3984375 1533.55273438 C30.45493398 1538.47838951 79.35833181 1522.48142362 115.125 1493.6875 C116.78523016 1492.26665186 118.43157637 1490.82939393 120.0625 1489.375 C120.93261719 1488.6015625 121.80273438 1487.828125 122.69921875 1487.03125 C124.40120522 1485.50480474 126.09687511 1483.97127755 127.78515625 1482.4296875 C129.7362616 1480.66934202 131.72263544 1478.98315677 133.75 1477.3125 C137.61169749 1474.0282526 140.79023691 1470.23209309 144.0625 1466.375 C145.49445818 1464.72434275 146.93197193 1463.0784886 148.375 1461.4375 C149.03113281 1460.68597656 149.68726563 1459.93445312 150.36328125 1459.16015625 C153.00259366 1456.38736137 154.8893801 1456.169357 158.609375 1456.05078125 C164.33700057 1456.11348498 168.3289728 1457.90642994 173.3125 1460.5625 C174.98604185 1461.39902642 176.66184177 1462.2310503 178.33984375 1463.05859375 C179.55389893 1463.6616333 179.55389893 1463.6616333 180.79248047 1464.27685547 C189.50655807 1468.4923772 198.61830167 1470.87992709 208 1473.0625 C208.86923096 1473.26520508 209.73846191 1473.46791016 210.6340332 1473.67675781 C224.02720091 1476.64064715 237.20485942 1477.78740121 250.875 1477.75 C251.63096466 1477.74945618 252.38692932 1477.74891235 253.165802 1477.74835205 C303.40210567 1477.58361909 348.2632059 1458.29359338 384.0625 1423.375 C415.69722289 1391.47369236 439.0607257 1345.7352348 443.54296875 1300.78125 C443.6212793 1300.01449951 443.69958984 1299.24774902 443.78027344 1298.45776367 C443.92250521 1296.98819335 444.04797354 1295.51686351 444.15332031 1294.04418945 C444.58917798 1289.31307997 445.71959189 1286.74253358 449.0625 1283.375 C452.89052321 1280.82298453 456.11922321 1281.04567796 460.5625 1280.9375 C512.04667212 1278.86907143 557.5916618 1252.49987794 592.5625 1215.75 C607.64739269 1199.22133871 619.12110266 1179.78314916 628.0625 1159.375 C628.75472656 1157.81265625 628.75472656 1157.81265625 629.4609375 1156.21875 C636.28520539 1139.70141372 639.47942111 1122.53955999 641.4375 1104.875 C641.52299103 1104.11758514 641.60848206 1103.36017029 641.69656372 1102.57980347 C643.23591956 1088.65767983 643.54717887 1074.97545442 642.25 1061 C642.16016846 1060.01668701 642.07033691 1059.03337402 641.9777832 1058.02026367 C639.70586789 1033.48809409 639.70586789 1033.48809409 632.0625 1010.375 C631.16798868 1003.8897929 631.16798868 1003.8897929 633.1328125 1000.5625 C635.00798703 998.37636688 636.99555828 996.38250889 639.0625 994.375 C665.84667982 968.22405638 686.49226123 936.55774039 697.0625 900.375 C697.27358398 899.65521973 697.48466797 898.93543945 697.70214844 898.19384766 C698.3822897 895.84231666 699.03911682 893.48547444 699.6875 891.125 C699.88182617 890.43591553 700.07615234 889.74683105 700.27636719 889.03686523 C704.33811618 873.66049034 705.58537646 858.28246222 705.4375 842.4375 C705.43151794 841.12795853 705.43151794 841.12795853 705.42541504 839.79196167 C705.35751249 827.10187551 704.85107915 814.7968526 702.0625 802.375 C701.75749294 800.89850348 701.45281016 799.42193993 701.1484375 797.9453125 C691.54121453 753.06358573 665.72665789 707.7448167 629.0625 679.375 C628.4025 679.375 627.7425 679.375 627.0625 679.375 C624.38842768 674.19398487 624.21939787 668.65653315 625.65820312 663.05639648 C626.476788 660.69341145 627.37052759 658.37898317 628.3125 656.0625 C632.91526743 644.33828339 636.59155655 633.00651643 638.75 620.5625 C638.96205078 619.38751953 639.17410156 618.21253906 639.39257812 617.00195312 C639.96654852 613.79532359 640.53178496 610.58907139 641.0625 607.375 C641.24570801 606.29234863 641.42891602 605.20969727 641.61767578 604.09423828 C642.15416123 599.60860748 642.22469498 595.21234939 642.23046875 590.69921875 C642.23379715 589.77518753 642.23712555 588.85115631 642.24055481 587.89912415 C642.24560125 585.94504286 642.24796384 583.99095302 642.24780273 582.03686523 C642.24996512 579.10970987 642.26807824 576.18294699 642.28710938 573.25585938 C642.33676039 557.34738857 641.44667613 541.88010952 637.375 526.4375 C637.11444824 525.42880859 636.85389648 524.42011719 636.58544922 523.38085938 C632.46268595 507.88689428 626.6468774 493.47934584 619.0625 479.375 C618.75231934 478.78412598 618.44213867 478.19325195 618.12255859 477.58447266 C610.59515431 463.29792905 600.80514516 450.53161081 589.58447266 438.94824219 C588.51528298 437.84303554 587.4530453 436.73108155 586.39599609 435.61425781 C552.13287753 399.4587272 505.2905824 377.37451409 455.3828125 375.68359375 C452.1130835 375.37970129 449.88892517 375.04422936 447.0625 373.375 C446.0234375 371.29296875 446.0234375 371.29296875 445.4375 368.5625 C445.20675781 367.48871094 444.97601562 366.41492188 444.73828125 365.30859375 C443.92815454 360.59300068 443.26973242 355.86555405 442.625 351.125 C438.39622835 320.22306711 426.38840261 288.71261615 408.0625 263.375 C407.5984375 262.72740723 407.134375 262.07981445 406.65625 261.41259766 C401.11989615 253.73342977 395.40500684 246.34448763 388.9453125 239.41015625 C387.37788562 237.71590437 385.92760793 235.99800939 384.5 234.1875 C381.99600617 231.29827635 379.38062486 228.88046397 376.46875 226.4140625 C374.6973209 224.91294888 372.95075608 223.3823715 371.21875 221.8359375 C363.08428745 214.63502219 354.45756454 208.80940008 345.0625 203.375 C344.13050781 202.83166016 344.13050781 202.83166016 343.1796875 202.27734375 C301.0314818 177.9748677 248.60953393 173.30773703 201.92236328 185.34594727 C189.04062892 188.88270034 176.54965393 193.98407661 164.6875 200.12109375 C161.24588164 201.76508109 158.83496131 201.78654123 155.0625 201.375 C151.10855688 199.41050145 148.88429604 197.19095278 146.25 193.6875 C136.11957388 180.98239747 124.23566004 169.86161355 111.0625 160.375 C110.50336914 159.96620605 109.94423828 159.55741211 109.36816406 159.13623047 C78.16833904 136.54541161 40.44646604 122.84048349 1.8125 123.125 C1.13518829 123.12876648 0.45787659 123.13253296 -0.23995972 123.13641357 C-53.95577696 123.48539703 -102.00500306 147.68003998 -139.3984375 185.625 Z " fill="#FEFEFE" transform="translate(891.9375,63.625)"/>
<path d="M0 0 C0 0.66 0 1.32 0 2 C-1.54287884 3.04174694 -3.13800326 4.0062759 -4.75 4.9375 C-13.60580398 10.39514664 -20.67823404 17.6660514 -28 25 C-28.82564453 25.7734375 -28.82564453 25.7734375 -29.66796875 26.5625 C-48.40679547 44.2897191 -60.57269182 68.99494035 -69 93 C-67.31197266 93.36351562 -67.31197266 93.36351562 -65.58984375 93.734375 C-61.50560981 94.62071205 -57.4286026 95.53673937 -53.35400391 96.46630859 C-51.38826087 96.91197487 -49.41911812 97.34261136 -47.44921875 97.76953125 C-21.42643087 103.9770823 5.44944147 116.06450694 27 132 C28.59134766 133.16789062 28.59134766 133.16789062 30.21484375 134.359375 C41.46074149 142.74366678 51.48883221 151.78147026 60 163 C60.60457031 163.78890625 61.20914062 164.5778125 61.83203125 165.390625 C81.28280819 191.91042019 86.30476269 222.2627771 81.6875 254.4375 C80.58844375 261.42287289 79.29644073 268.29771822 77 275 C76.66355469 276.00675781 76.32710937 277.01351563 75.98046875 278.05078125 C71.2298362 291.31759789 64.37847683 302.52019745 55 313 C54.20916016 313.91458984 54.20916016 313.91458984 53.40234375 314.84765625 C35.574832 334.13419709 6.60636937 347.79787688 -18 356 C-17.24605957 356.08975098 -16.49211914 356.17950195 -15.71533203 356.27197266 C20.05238607 360.64424814 50.44067765 371.98212427 73.60839844 401.015625 C76.98252067 405.52319024 80.04542965 410.20942716 83 415 C83.56605957 415.91096436 83.56605957 415.91096436 84.14355469 416.84033203 C93.82436429 432.60069007 99.46306802 449.17045389 104 467 C104.23025879 467.88751953 104.46051758 468.77503906 104.69775391 469.68945312 C108.3131589 484.37373083 108.38707442 499.15164453 108.4375 514.1875 C108.44385468 515.15770081 108.45020935 516.12790161 108.45675659 517.12750244 C108.67231144 570.12264142 90.36649662 620.43457353 55 660 C54.50999512 660.55171875 54.01999023 661.1034375 53.51513672 661.671875 C47.06098506 668.90815947 40.4286486 675.74541943 33 682 C32.48695313 682.43602539 31.97390625 682.87205078 31.4453125 683.32128906 C15.96163181 696.39700298 -1.06865387 707.57750675 -19 717 C-19.62616211 717.33161133 -20.25232422 717.66322266 -20.89746094 718.00488281 C-32.30252566 724.0023234 -44.08574032 729.10634826 -56 734 C-57.05936768 734.43723389 -57.05936768 734.43723389 -58.14013672 734.88330078 C-69.79606831 739.63818537 -81.81521226 742.89443191 -94 746 C-94.74894531 746.19335938 -95.49789063 746.38671875 -96.26953125 746.5859375 C-136.80354089 756.9638472 -181.63797231 760.55725583 -223 753 C-224.20003662 752.7839209 -224.20003662 752.7839209 -225.42431641 752.56347656 C-229.63557182 751.79014172 -233.82305567 750.94382877 -238 750 C-238.40025391 750.86238281 -238.40025391 750.86238281 -238.80859375 751.7421875 C-244.54357906 762.61045474 -254.54621526 772.31386783 -264 780 C-264.73645752 780.60497314 -264.73645752 780.60497314 -265.48779297 781.22216797 C-283.78876043 796.19668155 -303.40817581 807.80958368 -326 815 C-326.94617188 815.31710937 -327.89234375 815.63421875 -328.8671875 815.9609375 C-331.23151009 816.72386587 -333.59174521 817.39087693 -336 818 C-336.80050781 818.20496094 -337.60101562 818.40992188 -338.42578125 818.62109375 C-359.98046805 823.1441467 -384.93592375 820.82601173 -403.75 808.75 C-404.4925 808.1725 -405.235 807.595 -406 807 C-406 806.67 -406 806.34 -406 806 C-405.26064209 805.92483154 -404.52128418 805.84966309 -403.75952148 805.7722168 C-374.09162543 802.7188814 -344.93095827 799.26720805 -323 777 C-321.88044922 775.87851563 -321.88044922 775.87851563 -320.73828125 774.734375 C-308.99827387 762.35921888 -297.67277878 746.2391161 -297.765625 728.66796875 C-298.04762883 725.45782512 -299.03801979 723.53422444 -301 721 C-301 720.34 -301 719.68 -301 719 C-301.53496094 718.77441406 -302.06992187 718.54882812 -302.62109375 718.31640625 C-305.77064914 716.57354883 -308.36013263 714.28806332 -311.0625 711.9375 C-312.22973345 710.93403989 -313.3977133 709.9314474 -314.56640625 708.9296875 C-315.43676514 708.18283691 -315.43676514 708.18283691 -316.32470703 707.42089844 C-318.68041938 705.42290283 -321.09014359 703.49463157 -323.5 701.5625 C-328.2549105 697.69609833 -332.76661645 693.61471132 -337.234375 689.42407227 C-340.02154925 686.8110964 -342.84398754 684.26314669 -345.7421875 681.7734375 C-350.85700694 677.31818144 -355.64110297 672.54293892 -360.4375 667.75 C-361.32759766 666.87214844 -362.21769531 665.99429688 -363.13476562 665.08984375 C-368.41998985 659.81620147 -373.31252354 654.3779836 -377.96923828 648.54101562 C-380.07833477 645.90198265 -382.25086183 643.32495057 -384.4375 640.75 C-402.37615318 618.73154896 -414.22076872 593.56845196 -421.125 566.125 C-421.38925781 565.11308594 -421.65351562 564.10117188 -421.92578125 563.05859375 C-425.1620332 550.22857968 -425.24073349 537.52731736 -425.25 524.375 C-425.25067474 523.51272797 -425.25134949 522.65045593 -425.25204468 521.76205444 C-425.18771335 469.82382571 -408.73611188 426.1446103 -372.1875 388.875 C-365.92405672 382.65226146 -359.12787669 377.19692638 -352 372 C-351.42443359 371.58008789 -350.84886719 371.16017578 -350.25585938 370.72753906 C-318.11604058 347.62366259 -279.95630366 335.50816966 -240.4375 335.6875 C-239.70541321 335.68766113 -238.97332642 335.68782227 -238.21905518 335.68798828 C-225.62534849 335.70717086 -213.40710401 336.74903513 -201 339 C-200.88100342 338.24904053 -200.76200684 337.49808105 -200.6394043 336.72436523 C-199.71350224 331.00841522 -198.6777705 325.35345359 -197.40307617 319.70581055 C-193.54396667 302.43314476 -191.09166537 284.91646819 -188.43695068 267.42874146 C-186.7673994 256.43700399 -185.050617 245.45277197 -183.32705688 234.46939087 C-182.83009569 231.29972695 -182.33516413 228.12975177 -181.84057617 224.9597168 C-180.22879261 214.65027292 -178.58397466 204.34652008 -176.88671875 194.05078125 C-176.72742386 193.07481491 -176.56812897 192.09884857 -176.40400696 191.0933075 C-175.44886977 185.3453777 -174.31450956 179.67680396 -173 174 C-182.03200713 173.69976708 -190.58967541 174.5620949 -199.5 176 C-200.52095261 176.16122849 -200.52095261 176.16122849 -201.56253052 176.32571411 C-214.31512191 178.3513428 -226.87049817 181.08637874 -239.45141602 183.97314453 C-249.90525376 186.36373907 -260.38230142 188.48156512 -270.9375 190.375 C-271.61038055 190.49624237 -272.28326111 190.61748474 -272.97653198 190.74240112 C-279.6630716 191.94231652 -286.35997037 193.08094133 -293.06640625 194.1640625 C-294.06744385 194.32600098 -295.06848145 194.48793945 -296.09985352 194.65478516 C-299.14471604 195.01722607 -301.94048018 195.2663282 -305 195 C-308.30564584 190.04153125 -308.66234991 184.13425699 -309.59912109 178.33496094 C-310.00655179 175.96183843 -310.49478825 173.61437477 -310.98828125 171.2578125 C-313.12288264 159.95670639 -313.12288264 159.95670639 -310.421875 155.25 C-307.77831909 152.79902101 -305.03798324 150.94031777 -302 149 C-300.90013283 148.17161062 -299.80922368 147.33122225 -298.7265625 146.48046875 C-261.38750488 117.3997461 -211.81994624 93.29911887 -164.71484375 85.93359375 C-160.29151695 84.41247849 -158.53901497 81.03763123 -156.43969727 76.99633789 C-152.69867129 68.30374821 -150.11196835 59.64627673 -147.9375 50.4375 C-143.85451146 33.29655225 -140.28383485 18.9233273 -124.97265625 8.78515625 C-88.33535051 -13.21648465 -38.92975364 -20.01576956 0 0 Z " fill="#4D3A4C" transform="translate(1017,483)"/>
<path d="M0 0 C17.13355436 14.76710872 17.13355436 14.76710872 19.75 20 C23.92111958 19.42583779 27.48611023 17.94362568 31.33227539 16.32128906 C41.94573947 11.84967309 52.47405589 8.34577868 63.75 6 C64.68505371 5.80390137 65.62010742 5.60780273 66.58349609 5.40576172 C101.17965834 -1.50217402 139.12959968 -0.37691837 172.79589844 10.37646484 C174.68227248 10.9783888 176.57933362 11.54649904 178.4765625 12.11328125 C208.06955392 21.33336744 233.51661014 37.66037994 255.75 59 C256.31219238 59.53496094 256.87438477 60.06992187 257.45361328 60.62109375 C266.04627203 68.83665266 273.75589981 77.38471052 280.75 87 C281.44005127 87.94746094 281.44005127 87.94746094 282.14404297 88.9140625 C289.08997868 98.5429468 295.27943469 108.46409644 300.75 119 C301.22083008 119.90363281 301.69166016 120.80726563 302.17675781 121.73828125 C314.40015194 145.47760618 324.81064955 171.99367452 325.75 199 C326.62398437 199.02578125 327.49796875 199.0515625 328.3984375 199.078125 C338.85494685 199.56039587 348.63121677 201.35923425 358.75 204 C359.54567383 204.20753906 360.34134766 204.41507812 361.16113281 204.62890625 C416.48598735 219.41762287 466.02455512 257.42447213 495.26123047 306.68408203 C504.75223409 323.26495366 512.5448843 340.61137332 517.75 359 C517.95560547 359.72558105 518.16121094 360.45116211 518.37304688 361.19873047 C521.69172621 373.26944883 523.23137328 385.59693239 524.75 398 C524.92273437 399.26626221 525.09546875 400.53252441 525.2734375 401.8371582 C529.54029064 436.1069897 524.60709451 474.50593585 512.00390625 506.6015625 C510.51922995 510.02172105 510.51922995 510.02172105 510.75 514 C512.21918629 515.73451855 512.21918629 515.73451855 514.25 517.25 C522.43644955 524.04086852 529.1542167 531.67254784 535.75 540 C536.52085938 540.94230469 537.29171875 541.88460937 538.0859375 542.85546875 C574.02137223 587.80383614 594.29381554 649.44314406 588.54760742 707.02825928 C587.42240559 716.76484741 585.64741198 726.38797807 583.75 736 C583.5022583 737.31194336 583.5022583 737.31194336 583.24951172 738.65039062 C575.85306828 777.27899221 551.27837029 832.08393773 517.828125 855.3359375 C516.37497791 857.18483726 516.37497791 857.18483726 517.2265625 860.6328125 C517.5934565 862.13418803 517.97744233 863.63145134 518.375 865.125 C518.77281475 866.74659384 519.16726485 868.36901627 519.55859375 869.9921875 C519.76081543 870.82073242 519.96303711 871.64927734 520.17138672 872.50292969 C521.07296715 876.39380084 521.76677494 880.31374226 522.4375 884.25 C522.61563232 885.28471436 522.61563232 885.28471436 522.79736328 886.34033203 C523.11930828 888.22614223 523.43483825 890.11304431 523.75 892 C524.02070313 893.51400391 524.02070313 893.51400391 524.296875 895.05859375 C532.87472462 950.74066931 518.58357853 1012.35477104 485.75 1058 C478.96558542 1067.17216569 471.64895643 1075.77021066 463.75 1084 C463.21503906 1084.56219238 462.68007812 1085.12438477 462.12890625 1085.70361328 C453.90229948 1094.30782701 445.30957424 1101.91653871 435.75 1109 C434.63019089 1109.85023745 433.5103991 1110.7004977 432.390625 1111.55078125 C413.10382698 1125.97329635 390.64333212 1136.70583748 367.75 1144 C366.58210938 1144.37898438 365.41421875 1144.75796875 364.2109375 1145.1484375 C351.81413647 1148.93872379 338.75475428 1151.6292623 325.75 1151 C325.70174072 1151.67587158 325.65348145 1152.35174316 325.60375977 1153.0480957 C321.89833684 1199.44031263 298.33575177 1244.64460653 267.75 1279 C267.2977002 1279.51401367 266.84540039 1280.02802734 266.37939453 1280.55761719 C236.55126193 1314.3776582 196.72841581 1336.05440894 152.75 1345 C151.96786133 1345.16661133 151.18572266 1345.33322266 150.37988281 1345.50488281 C122.82616424 1351.13213274 90.04777106 1350.73474862 62.75 1344 C61.83250977 1343.78569336 60.91501953 1343.57138672 59.96972656 1343.35058594 C46.37666721 1340.13597947 33.58101272 1335.48310088 20.75 1330 C20.21745605 1330.54825439 19.68491211 1331.09650879 19.13623047 1331.66137695 C-0.43007888 1351.72663351 -0.43007888 1351.72663351 -11.61425781 1359.81298828 C-13.28944238 1361.02862222 -14.93788987 1362.27523068 -16.5859375 1363.52734375 C-59.16751508 1395.43747659 -114.48318161 1411.00652238 -167.3046875 1403.625 C-173.6759519 1402.61569079 -179.96257082 1401.44509461 -186.25 1400 C-186.94609375 1399.84724609 -187.6421875 1399.69449219 -188.359375 1399.53710938 C-216.33834951 1393.31129146 -243.32094383 1380.09932536 -266.25 1363 C-266.85392578 1362.55156738 -267.45785156 1362.10313477 -268.08007812 1361.64111328 C-297.41374757 1339.67250485 -297.41374757 1339.67250485 -302.25 1330 C-307.0604116 1331.54620373 -311.78463774 1333.20062606 -316.48657227 1335.05297852 C-353.04312644 1349.28491945 -395.71422839 1353.11051617 -434.25 1345 C-435.78631725 1344.70629229 -437.32277757 1344.41333206 -438.859375 1344.12109375 C-468.15717 1338.30381959 -496.00685714 1325.53536057 -519.60253906 1307.27294922 C-521.03300273 1306.16766802 -522.47996421 1305.08380217 -523.9296875 1304.00390625 C-538.74965094 1292.53113082 -552.48487742 1278.35072149 -563.25 1263 C-563.7337207 1262.31228516 -564.21744141 1261.62457031 -564.71582031 1260.91601562 C-571.87411482 1250.643251 -578.46262562 1240.1049347 -584.25 1229 C-584.80034912 1227.9483667 -584.80034912 1227.9483667 -585.36181641 1226.87548828 C-597.62329537 1203.10193155 -605.53057811 1177.5859272 -608.25 1151 C-608.85948486 1151.02030273 -609.46896973 1151.04060547 -610.09692383 1151.06152344 C-616.2758165 1151.17758122 -621.90754303 1150.55341865 -627.9375 1149.25 C-628.8047168 1149.06808105 -629.67193359 1148.88616211 -630.56542969 1148.69873047 C-665.04574652 1141.33369412 -696.97516565 1126.47758256 -724.25 1104 C-724.80461914 1103.54689453 -725.35923828 1103.09378906 -725.93066406 1102.62695312 C-738.90199208 1091.97219468 -751.09012867 1080.40491385 -761.25 1067 C-761.73823242 1066.3611084 -762.22646484 1065.7222168 -762.72949219 1065.06396484 C-770.96366527 1054.22438927 -778.03175037 1043.10449643 -784.25 1031 C-784.78101318 1029.99066406 -784.78101318 1029.99066406 -785.32275391 1028.9609375 C-791.97239237 1016.22957902 -796.21340481 1002.7505475 -800.25 989 C-800.52030029 988.08404053 -800.79060059 987.16808105 -801.0690918 986.22436523 C-811.95694914 947.98818675 -811.71409991 900.65819377 -799.88671875 862.7578125 C-799.21492236 859.84806863 -799.28286595 858.75614882 -800.25 856 C-801.4273148 854.38721131 -801.4273148 854.38721131 -802.953125 852.92578125 C-803.51467285 852.34989258 -804.0762207 851.77400391 -804.65478516 851.18066406 C-805.26370605 850.56416992 -805.87262695 849.94767578 -806.5 849.3125 C-829.28241753 825.50753231 -846.39002246 796.48684341 -857.35913086 765.4909668 C-857.97276607 763.77517616 -858.60493165 762.06593749 -859.25219727 760.36254883 C-871.36781625 728.26981195 -874.31316042 691.81779134 -869.25 658 C-869.15348145 657.32517578 -869.05696289 656.65035156 -868.95751953 655.95507812 C-861.68469452 606.22758498 -838.53224807 561.76257628 -804.875 524.875 C-804.17963135 524.11219727 -804.17963135 524.11219727 -803.47021484 523.33398438 C-799.97558948 519.58876332 -796.19073671 516.26831514 -792.25 513 C-792.47139648 512.30664551 -792.69279297 511.61329102 -792.92089844 510.89892578 C-799.68020028 489.62576406 -804.65369876 469.16939809 -807.25 447 C-807.34788818 446.19280518 -807.44577637 445.38561035 -807.54663086 444.55395508 C-813.85381533 388.30692285 -797.18041096 328.56226771 -761.91796875 284.32910156 C-758.7815929 280.47642086 -755.53811453 276.72344237 -752.25 273 C-751.57517578 272.23042969 -751.57517578 272.23042969 -750.88671875 271.4453125 C-716.98649052 232.95341071 -666.86536696 203.75288885 -615.25 199 C-612.90655152 198.92431643 -610.59545696 198.94437651 -608.25 199 C-608.1159375 197.69804687 -607.981875 196.39609375 -607.84375 195.0546875 C-601.66988074 140.0686644 -570.09525051 83.39115477 -526.99829102 48.62036133 C-524.67618859 46.80022993 -522.32274461 45.02623154 -519.95166016 43.27050781 C-518.32716261 42.05761179 -516.7310619 40.80695702 -515.13671875 39.5546875 C-491.32465117 21.21161423 -462.38316887 10.95115925 -433.25 5 C-432.40630859 4.82065918 -431.56261719 4.64131836 -430.69335938 4.45654297 C-418.3635058 1.9267625 -406.03832519 1.72094137 -393.5 1.6875 C-392.72257446 1.68373352 -391.94514893 1.67996704 -391.14416504 1.67608643 C-363.29838566 1.60769638 -335.49780631 6.74538481 -309.93432617 17.99121094 C-306.12870477 19.66488124 -306.12870477 19.66488124 -302.08203125 19.54296875 C-299.47275556 17.34539115 -297.23491877 14.87741728 -295 12.3125 C-290.67536953 7.48898335 -286.2834693 3.09445234 -281.25 -1 C-280.74549316 -1.42216797 -280.24098633 -1.84433594 -279.72119141 -2.27929688 C-270.06289219 -10.36067435 -260.01302717 -17.4667817 -249.25 -24 C-248.22495361 -24.62986816 -248.22495361 -24.62986816 -247.17919922 -25.27246094 C-167.21497882 -73.87704757 -69.73474197 -59.13405712 0 0 Z M-280.7109375 32.25 C-284.11219467 35.93382315 -287.22540166 39.80907469 -290.27734375 43.78515625 C-293.24307873 47.11500127 -295.04697066 47.86001113 -299.47265625 48.375 C-304.24447592 47.9012723 -307.49318662 46.21061933 -311.6875 44 C-355.41373706 22.26873023 -406.79844091 20.25294228 -452.95166016 35.2265625 C-478.41049126 43.79397029 -500.78740612 57.53162531 -520.25 76 C-521.20648437 76.90363281 -522.16296875 77.80726563 -523.1484375 78.73828125 C-530.62145412 85.92982149 -537.08966248 93.66683025 -543.25 102 C-543.99765625 103.00289062 -544.7453125 104.00578125 -545.515625 105.0390625 C-567.99970961 136.33884935 -582.09161032 173.62887095 -585.6953125 212.0390625 C-586.43798555 216.00347216 -587.68212181 218.80039087 -590.9296875 221.28515625 C-594.37043642 222.34518496 -597.80549864 222.34425681 -601.375 222.4375 C-648.32607282 224.47554616 -690.80794093 246.92660388 -724.25 279 C-725.19875 279.89589844 -726.1475 280.79179687 -727.125 281.71484375 C-762.23077688 315.67369894 -782.65159528 364.82453708 -783.5859375 413.4609375 C-783.62657936 416.7658935 -783.63321767 420.06982873 -783.625 423.375 C-783.62368576 424.67860474 -783.62368576 424.67860474 -783.62234497 426.00854492 C-783.52469322 455.56222289 -778.61372304 486.27255393 -765.25 513 C-765.1953125 514.98828125 -765.1953125 514.98828125 -765.375 517.3125 C-765.41882813 518.07175781 -765.46265625 518.83101562 -765.5078125 519.61328125 C-766.58368048 523.07304618 -768.57096338 524.57134063 -771.25 527 C-772.46317771 528.12659478 -773.6753469 529.25427619 -774.88671875 530.3828125 C-775.54124023 530.98665771 -776.19576172 531.59050293 -776.87011719 532.21264648 C-815.75645652 568.18296958 -844.18606183 620.10273108 -846.41113281 673.89550781 C-846.43063008 675.24797877 -846.44441565 676.60054155 -846.453125 677.953125 C-846.46013931 678.68685837 -846.46715363 679.42059174 -846.47438049 680.17655945 C-846.49179782 682.53443612 -846.49823402 684.89206133 -846.5 687.25 C-846.50067474 688.05712433 -846.50134949 688.86424866 -846.50204468 689.6958313 C-846.48562452 702.05959837 -845.85914886 713.88235977 -843.25 726 C-843.0943457 726.80228027 -842.93869141 727.60456055 -842.77832031 728.43115234 C-835.95975046 763.52433071 -819.12062659 798.30420491 -795.25 825 C-794.55028076 825.78793945 -794.55028076 825.78793945 -793.83642578 826.59179688 C-788.46251241 832.61997082 -783.11186343 838.49383436 -776.7734375 843.53515625 C-773.81236145 846.38234476 -773.29547747 848.45899532 -772.94921875 852.578125 C-773.08916268 857.84975181 -774.61124928 862.71305547 -776.0625 867.75 C-778.99517702 878.42061111 -780.96095067 889.01644742 -782.25 900 C-782.3435376 900.7314624 -782.4370752 901.4629248 -782.53344727 902.21655273 C-785.97350575 931.7713306 -783.21338508 962.66974411 -774.25 991 C-774.01474609 991.75087891 -773.77949219 992.50175781 -773.53710938 993.27539062 C-767.09622151 1013.31182016 -757.02457424 1032.28608822 -744.25 1049 C-743.84023926 1049.5367334 -743.43047852 1050.0734668 -743.00830078 1050.62646484 C-726.05360566 1072.42729238 -705.03092271 1090.14144137 -681.25 1104 C-680.6504248 1104.35400879 -680.05084961 1104.70801758 -679.43310547 1105.07275391 C-663.80832903 1114.20255884 -646.86041809 1120.07794437 -629.25 1124 C-628.06277344 1124.34417969 -626.87554688 1124.68835937 -625.65234375 1125.04296875 C-618.61666771 1126.8207963 -611.19929917 1126.75533346 -603.984375 1127.12304688 C-602.24027344 1127.23036133 -602.24027344 1127.23036133 -600.4609375 1127.33984375 C-599.41212402 1127.39519287 -598.36331055 1127.45054199 -597.28271484 1127.50756836 C-593.74343869 1128.08225199 -591.28915141 1129.10249592 -588.25 1131 C-586.12352704 1133.96281481 -585.81086374 1137.02087614 -585.35546875 1140.59375 C-585.20754883 1141.69638184 -585.05962891 1142.79901367 -584.90722656 1143.93505859 C-584.7522168 1145.11148926 -584.59720703 1146.28791992 -584.4375 1147.5 C-577.82403645 1194.23472885 -557.15462823 1237.09537177 -523.6875 1270.5625 C-522.16443175 1272.08556825 -520.66603761 1273.63420772 -519.20703125 1275.21875 C-492.81965691 1303.28837954 -454.4865576 1317.48851477 -417.25 1323 C-416.14406494 1323.1757959 -415.03812988 1323.3515918 -413.89868164 1323.53271484 C-377.21650766 1328.23058577 -338.81879181 1320.87333593 -306.12109375 1303.89453125 C-303.87143811 1302.81901739 -302.23342511 1302.73299024 -299.75 1302.75 C-298.9971875 1302.74484375 -298.244375 1302.7396875 -297.46875 1302.734375 C-293.8388794 1303.16893697 -291.90556049 1304.25431811 -289.48828125 1307.00390625 C-288.85277344 1307.84824219 -288.21726562 1308.69257812 -287.5625 1309.5625 C-255.41189933 1349.71128611 -207.38572669 1374.2103631 -156.7109375 1380.17773438 C-110.85756602 1385.10338951 -61.95416819 1369.10642362 -26.1875 1340.3125 C-24.52726984 1338.89165186 -22.88092363 1337.45439393 -21.25 1336 C-20.37988281 1335.2265625 -19.50976562 1334.453125 -18.61328125 1333.65625 C-16.91129478 1332.12980474 -15.21562489 1330.59627755 -13.52734375 1329.0546875 C-11.5762384 1327.29434202 -9.58986456 1325.60815677 -7.5625 1323.9375 C-3.70080251 1320.6532526 -0.52226309 1316.85709309 2.75 1313 C4.18195818 1311.34934275 5.61947193 1309.7034886 7.0625 1308.0625 C7.71863281 1307.31097656 8.37476563 1306.55945312 9.05078125 1305.78515625 C11.69009366 1303.01236137 13.5768801 1302.794357 17.296875 1302.67578125 C23.02450057 1302.73848498 27.0164728 1304.53142994 32 1307.1875 C33.67354185 1308.02402642 35.34934177 1308.8560503 37.02734375 1309.68359375 C38.24139893 1310.2866333 38.24139893 1310.2866333 39.47998047 1310.90185547 C48.19405807 1315.1173772 57.30580167 1317.50492709 66.6875 1319.6875 C67.55673096 1319.89020508 68.42596191 1320.09291016 69.3215332 1320.30175781 C82.71470091 1323.26564715 95.89235942 1324.41240121 109.5625 1324.375 C110.31846466 1324.37445618 111.07442932 1324.37391235 111.853302 1324.37335205 C162.08960567 1324.20861909 206.9507059 1304.91859338 242.75 1270 C274.38472289 1238.09869236 297.7482257 1192.3602348 302.23046875 1147.40625 C302.3087793 1146.63949951 302.38708984 1145.87274902 302.46777344 1145.08276367 C302.61000521 1143.61319335 302.73547354 1142.14186351 302.84082031 1140.66918945 C303.27667798 1135.93807997 304.40709189 1133.36753358 307.75 1130 C311.57802321 1127.44798453 314.80672321 1127.67067796 319.25 1127.5625 C370.73417212 1125.49407143 416.2791618 1099.12487794 451.25 1062.375 C466.33489269 1045.84633871 477.80860266 1026.40814916 486.75 1006 C487.44222656 1004.43765625 487.44222656 1004.43765625 488.1484375 1002.84375 C494.97270539 986.32641372 498.16692111 969.16455999 500.125 951.5 C500.21049103 950.74258514 500.29598206 949.98517029 500.38406372 949.20480347 C501.92341956 935.28267983 502.23467887 921.60045442 500.9375 907.625 C500.84766846 906.64168701 500.75783691 905.65837402 500.6652832 904.64526367 C498.39336789 880.11309409 498.39336789 880.11309409 490.75 857 C489.85548868 850.5147929 489.85548868 850.5147929 491.8203125 847.1875 C493.69548703 845.00136688 495.68305828 843.00750889 497.75 841 C524.53417982 814.84905638 545.17976123 783.18274039 555.75 747 C555.96108398 746.28021973 556.17216797 745.56043945 556.38964844 744.81884766 C557.0697897 742.46731666 557.72661682 740.11047444 558.375 737.75 C558.56932617 737.06091553 558.76365234 736.37183105 558.96386719 735.66186523 C563.02561618 720.28549034 564.27287646 704.90746222 564.125 689.0625 C564.11901794 687.75295853 564.11901794 687.75295853 564.11291504 686.41696167 C564.04501249 673.72687551 563.53857915 661.4218526 560.75 649 C560.44499294 647.52350348 560.14031016 646.04693993 559.8359375 644.5703125 C550.22871453 599.68858573 524.41415789 554.3698167 487.75 526 C487.09 526 486.43 526 485.75 526 C483.07592768 520.81898487 482.90689787 515.28153315 484.34570312 509.68139648 C485.164288 507.31841145 486.05802759 505.00398317 487 502.6875 C491.60276743 490.96328339 495.27905655 479.63151643 497.4375 467.1875 C497.64955078 466.01251953 497.86160156 464.83753906 498.08007812 463.62695312 C498.65404852 460.42032359 499.21928496 457.21407139 499.75 454 C499.93320801 452.91734863 500.11641602 451.83469727 500.30517578 450.71923828 C500.84166123 446.23360748 500.91219498 441.83734939 500.91796875 437.32421875 C500.92129715 436.40018753 500.92462555 435.47615631 500.92805481 434.52412415 C500.93310125 432.57004286 500.93546384 430.61595302 500.93530273 428.66186523 C500.93746512 425.73470987 500.95557824 422.80794699 500.97460938 419.88085938 C501.02426039 403.97238857 500.13417613 388.50510952 496.0625 373.0625 C495.80194824 372.05380859 495.54139648 371.04511719 495.27294922 370.00585938 C491.15018595 354.51189428 485.3343774 340.10434584 477.75 326 C477.43981934 325.40912598 477.12963867 324.81825195 476.81005859 324.20947266 C469.28265431 309.92292905 459.49264516 297.15661081 448.27197266 285.57324219 C447.20278298 284.46803554 446.1405453 283.35608155 445.08349609 282.23925781 C410.82037753 246.0837272 363.9780824 223.99951409 314.0703125 222.30859375 C310.8005835 222.00470129 308.57642517 221.66922936 305.75 220 C304.7109375 217.91796875 304.7109375 217.91796875 304.125 215.1875 C303.89425781 214.11371094 303.66351562 213.03992188 303.42578125 211.93359375 C302.61565454 207.21800068 301.95723242 202.49055405 301.3125 197.75 C297.08372835 166.84806711 285.07590261 135.33761615 266.75 110 C266.2859375 109.35240723 265.821875 108.70481445 265.34375 108.03759766 C259.80739615 100.35842977 254.09250684 92.96948763 247.6328125 86.03515625 C246.06538562 84.34090437 244.61510793 82.62300939 243.1875 80.8125 C240.68350617 77.92327635 238.06812486 75.50546397 235.15625 73.0390625 C233.3848209 71.53794888 231.63825608 70.0073715 229.90625 68.4609375 C221.77178745 61.26002219 213.14506454 55.43440008 203.75 50 C202.81800781 49.45666016 202.81800781 49.45666016 201.8671875 48.90234375 C159.7189818 24.5998677 107.29703393 19.93273703 60.60986328 31.97094727 C47.72812892 35.50770034 35.23715393 40.60907661 23.375 46.74609375 C19.93338164 48.39008109 17.52246131 48.41154123 13.75 48 C9.79605688 46.03550145 7.57179604 43.81595278 4.9375 40.3125 C-5.19292612 27.60739747 -17.07683996 16.48661355 -30.25 7 C-30.80913086 6.59120605 -31.36826172 6.18241211 -31.94433594 5.76123047 C-63.14416096 -16.82958839 -100.86603396 -30.53451651 -139.5 -30.25 C-140.17731171 -30.24623352 -140.85462341 -30.24246704 -141.55245972 -30.23858643 C-195.26827696 -29.88960297 -243.31750306 -5.69496002 -280.7109375 32.25 Z " fill="#CCDEEF" transform="translate(1033.25,217)"/>
<path d="M0 0 C36.43806966 -0.8447775 69.85517827 4.27763917 97.38305664 30.00170898 C117.00286866 48.91277956 127.5340437 75.99956592 128.203125 103.10546875 C128.62200682 140.56092673 120.36917112 179.07041783 93.78125 207.15625 C92.8634375 208.0946875 91.945625 209.033125 91 210 C90.38125 210.64839844 89.7625 211.29679687 89.125 211.96484375 C78.81480701 222.75592261 68.20498835 232.40372662 56 241 C55.05543945 241.67168213 55.05543945 241.67168213 54.09179688 242.35693359 C26.75096447 261.65507634 -4.62740023 275.69129401 -37 284 C-38.22976563 284.33515625 -39.45953125 284.6703125 -40.7265625 285.015625 C-50.32596565 287.58399121 -59.96804927 289.27752299 -69.80126953 290.67529297 C-71.73582043 290.96098614 -73.66364687 291.291455 -75.58984375 291.62890625 C-96.53983362 295.06057699 -119.42623498 294.24918552 -140 289 C-139.75910645 288.06325439 -139.51821289 287.12650879 -139.27001953 286.16137695 C-137.36587516 278.68903456 -135.56673743 271.20359077 -133.9296875 263.66796875 C-133.76027649 262.88986847 -133.59086548 262.11176819 -133.4163208 261.31008911 C-132.72290123 258.11707357 -132.03238072 254.92347772 -131.34912109 251.72827148 C-130.83996027 249.35274021 -130.32292436 246.97903399 -129.8046875 244.60546875 C-129.65256805 243.88368942 -129.50044861 243.1619101 -129.34371948 242.41825867 C-128.60989423 239.08158182 -127.92064723 236.88097085 -126 234 C-123.94726562 233.78295898 -123.94726562 233.78295898 -121.40625 233.99609375 C-120.46716797 234.06159424 -119.52808594 234.12709473 -118.56054688 234.19458008 C-117.55056641 234.27474365 -116.54058594 234.35490723 -115.5 234.4375 C-76.93219444 236.77448822 -42.22148276 220.6357565 -13.6875 195.4375 C-12.1143058 193.96971245 -10.55197557 192.49020539 -9 191 C-8.10925781 190.16082031 -7.21851563 189.32164062 -6.30078125 188.45703125 C13.50816208 169.31114879 26.68564063 145.42297309 34 119 C34.18852539 118.33226562 34.37705078 117.66453125 34.57128906 116.9765625 C42.68246607 86.74263569 35.10127626 54.63796555 20 28 C15.78750918 21.0420142 11.05749339 14.60219246 5.859375 8.3515625 C3.73769198 5.6682575 1.86618114 2.86533122 0 0 Z " fill="#FEFEFE" transform="translate(951,887)"/>
<path d="M0 0 C0.72573212 -0.00233643 1.45146423 -0.00467285 2.19918823 -0.00708008 C13.71145756 -0.02105263 24.7948043 0.781978 36.0625 3.25 C35.68739783 14.50946607 33.35954728 25.11657413 30.875 36.0625 C30.46261449 37.90932588 30.05067162 39.75625065 29.63916016 41.60327148 C27.32085763 51.95596905 24.88069919 62.26962376 22.23388672 72.54370117 C19.60759669 82.82108009 17.40227717 93.18948585 15.16571045 103.55682373 C15.02208069 104.22256409 14.87845093 104.88830444 14.73046875 105.57421875 C14.58828918 106.23367493 14.44610962 106.8931311 14.29962158 107.5725708 C13.02664576 113.45749048 11.67431768 119.32266113 10.3125 125.1875 C8.23929298 134.15804309 6.54465814 143.16425012 5.0625 152.25 C-6.93450951 151.04572586 -17.18343553 144.19510801 -25.9375 136.25 C-26.78054688 135.49976563 -27.62359375 134.74953125 -28.4921875 133.9765625 C-39.29311715 123.83222432 -44.96705643 112.27435648 -48.9375 98.25 C-49.11925781 97.61296143 -49.30101562 96.97592285 -49.48828125 96.31958008 C-49.96548514 94.12107065 -50.05121108 92.16955183 -50.03515625 89.921875 C-50.03032227 88.72304688 -50.03032227 88.72304688 -50.02539062 87.5 C-50.01282227 86.2625 -50.01282227 86.2625 -50 85 C-49.99548828 84.15953125 -49.99097656 83.3190625 -49.98632812 82.453125 C-49.97457961 80.38538599 -49.95664522 78.31768376 -49.9375 76.25 C-63.3498668 99.53901164 -72.8737485 122.46434325 -66.09765625 149.7578125 C-57.68699498 175.07475249 -37.90667441 195.27568799 -17.828125 212.0078125 C-16.125 213.5 -16.125 213.5 -13.9375 216.25 C-14.25202892 221.29539383 -15.62817242 225.52021091 -17.51953125 230.1796875 C-17.77498215 230.81431915 -18.03043304 231.44895081 -18.29362488 232.10281372 C-19.10514863 234.11324359 -19.92752745 236.1190284 -20.75 238.125 C-21.29039552 239.46196413 -21.83011449 240.79920193 -22.36914062 242.13671875 C-25.10318389 248.89709116 -27.92340292 255.60876914 -30.9375 262.25 C-52.79272852 260.18659692 -72.14516779 247.81056109 -87.9375 233.25 C-88.87207031 232.39792969 -89.80664062 231.54585937 -90.76953125 230.66796875 C-111.47865688 210.90690037 -124.50918292 184.77702101 -131.6875 157.3125 C-131.88657959 156.56266846 -132.08565918 155.81283691 -132.29077148 155.0402832 C-135.54490522 141.77643967 -136.31103415 128.12716179 -136.30810547 114.52050781 C-136.3125002 112.24989838 -136.34909263 109.98120968 -136.38671875 107.7109375 C-136.49611642 93.68186695 -134.1849386 80.20540669 -127.8125 67.5625 C-127.22891724 66.37781128 -127.22891724 66.37781128 -126.63354492 65.16918945 C-111.70790293 35.74979892 -85.78456735 17.37239327 -54.93652344 7.21704102 C-37.07417841 1.74177616 -18.58908628 0.02730947 0 0 Z " fill="#FEFEFE" transform="translate(775.9375,884.75)"/>
<path d="M0 0 C1.5616077 1.33112166 3.10383908 2.68533882 4.625 4.0625 C5.40488281 4.76117187 6.18476562 5.45984375 6.98828125 6.1796875 C17.39468157 16.00892612 24.56900859 27.72820817 25.09594727 42.2043457 C25.35673389 65.61597173 15.46100401 85.84432201 -0.52270508 102.60839844 C-30.68269627 133.38750969 -80.61790911 156.76456019 -123.375 161.0625 C-125.37497968 161.07151662 -127.37502453 161.0724051 -129.375 161.0625 C-129.99253753 149.23354459 -128.17351743 137.58038798 -126.6875 125.875 C-126.48300735 124.24105286 -126.48300735 124.24105286 -126.27438354 122.57409668 C-121.53968912 84.75056896 -115.17394626 47.39476676 -107.1875 10.125 C-107.0251889 9.36239868 -106.86287781 8.59979736 -106.69564819 7.81408691 C-104.62140183 -1.89324365 -102.23571517 -11.42974583 -99.375 -20.9375 C-66.27260382 -25.97660239 -27.14422132 -21.00545127 0 0 Z " fill="#FEFEFE" transform="translate(1030.375,665.9375)"/>
<path d="M0 0 C19.05802454 1.42611068 39.94734239 13.09178473 52.8125 26.75 C65.27746165 42.13692273 68.2812218 57.62533339 67 77 C63.86993663 103.31861617 47.71411088 127.57960661 27.5 144.03515625 C13.35201829 154.35139291 -2.33506907 160.66097249 -20 159 C-25.02465094 157.98341469 -29.45942812 156.35740752 -34 154 C-30.37925661 133.82728683 -25.83323882 113.86266335 -21.0859375 93.9296875 C-14.28526777 65.36298475 -7.92458439 36.68453392 -2.4074707 7.83959961 C-2.23175537 6.93218018 -2.05604004 6.02476074 -1.875 5.08984375 C-1.72804688 4.31503662 -1.58109375 3.54022949 -1.4296875 2.74194336 C-1 1 -1 1 0 0 Z " fill="#FEFDFE" transform="translate(877,902)"/>
</svg>
