<svg width="27" height="27" viewBox="0 0 27 27" fill="none" xmlns="http://www.w3.org/2000/svg">
<path fill-rule="evenodd" clip-rule="evenodd" d="M8.99741 23.6558C5.36292 21.9791 2.56762 18.627 2.38642 13.3977C5.69955 13.6133 7.76549 11.7033 8.49743 9.1126C11.7773 8.28496 13.0439 5.68456 12.684 2.44205C20.0515 1.88307 25.8002 8.63479 24.3847 15.629C22.9585 22.675 15.3237 26.5745 8.99741 23.6558ZM11.0632 2.04162C11.2781 3.10698 11.602 3.46137 11.2568 4.74758C11.0306 5.5903 10.5479 6.28837 10.0858 6.70785C8.28411 8.3429 7.46059 7.22614 7.15984 8.55938C6.73658 10.4357 5.23842 12.1747 2.76547 12.0003C1.46218 11.9083 1.075 11.4326 1.00899 13.071C0.969535 14.0479 1.06212 15.0148 1.2447 15.9605C1.91696 19.4412 4.15023 22.2507 6.21063 23.6679C12.2427 27.8166 19.9992 26.1992 23.7505 20.6436C25.5589 17.9653 26.5747 14.5118 25.655 10.632C24.2552 4.72556 18.9154 0.843708 13.1458 1.00483C12.2643 1.02964 10.8441 0.956217 11.063 2.04162H11.0632Z" fill="#443548" stroke="#443548" stroke-width="0.4"/>
<path fill-rule="evenodd" clip-rule="evenodd" d="M20.063 10.378C18.1782 10.8715 18.9225 13.5316 20.7557 13.0437C22.436 12.5964 21.7662 9.93212 20.063 10.378Z" fill="#443548"/>
<path fill-rule="evenodd" clip-rule="evenodd" d="M13.0572 11.2885C9.88643 12.0149 11.2234 16.5559 14.1997 15.6638C16.8586 14.8669 15.9086 10.6352 13.0572 11.2885Z" fill="#443548"/>
<path fill-rule="evenodd" clip-rule="evenodd" d="M13.2067 19.3258C11.322 19.8193 12.0664 22.4794 13.8994 21.9913C15.5796 21.544 14.9099 18.8797 13.2067 19.3258Z" fill="#443548"/>
<path fill-rule="evenodd" clip-rule="evenodd" d="M7.559 15.8511C5.65502 16.5196 6.75094 19.0311 8.38629 18.4703C10.1011 17.8824 9.21993 15.2679 7.559 15.8511Z" fill="#443548"/>
<path fill-rule="evenodd" clip-rule="evenodd" d="M17.8873 15.8512C15.9819 16.5201 17.0814 19.0324 18.7146 18.4703C20.4282 17.8801 19.5488 15.2678 17.8873 15.8512Z" fill="#443548"/>
<path fill-rule="evenodd" clip-rule="evenodd" d="M15.6314 5.95231C13.7582 6.70495 14.9546 9.16109 16.5856 8.52374C17.1912 8.28702 17.6494 7.55264 17.3766 6.76011C17.1702 6.16046 16.4292 5.63165 15.6314 5.95231Z" fill="#443548"/>
</svg>
