<svg width="83" height="40" viewBox="0 0 83 40" fill="none" xmlns="http://www.w3.org/2000/svg">
<path d="M30.397 16.2621C30.3525 16.0715 30.3422 15.9013 30.3696 15.7515C30.3902 15.6357 30.4347 15.5506 30.5033 15.486C30.5684 15.4247 30.637 15.3974 30.7296 15.3974C30.8221 15.3974 30.8496 15.4281 30.8701 15.4621C30.9078 15.5234 30.9181 15.6085 30.901 15.714C30.8701 15.8945 30.8118 16.0783 30.7296 16.2553C30.6781 16.3677 30.6164 16.4834 30.5513 16.6026C30.4759 16.4902 30.4245 16.3745 30.397 16.2621ZM30.1262 14.4987C29.9034 14.594 29.6977 14.7268 29.5125 14.8902C29.3274 15.057 29.1697 15.2545 29.036 15.4826C28.9057 15.7106 28.8132 15.9591 28.7686 16.2111C28.6863 16.674 28.7103 17.0826 28.8406 17.423C28.9537 17.7191 29.1457 18.0289 29.4131 18.3489L27.5447 21.28L27.3905 21.5013C26.7665 22.4068 26.2249 23.166 25.7826 23.7481C25.3404 24.3302 24.9495 24.8 24.6273 25.1404C24.3119 25.474 24.0479 25.7089 23.8422 25.8349C23.6057 25.9813 23.4583 26.0119 23.376 26.0119C23.2834 26.0119 23.2046 25.9949 23.1257 25.954C23.0709 25.9302 23.0194 25.8485 22.9749 25.726C22.92 25.5728 22.896 25.3243 22.8995 24.9906C22.9029 24.6434 22.9612 24.1634 23.0674 23.5609C23.2183 22.7132 23.3863 21.8826 23.5714 21.0962C23.76 20.2962 23.9382 19.5711 24.1028 18.9413C24.2708 18.3013 24.4147 17.7668 24.5347 17.3447C24.6581 16.9089 24.7267 16.6434 24.7473 16.5277C24.7987 16.2485 24.7816 16.0545 24.689 15.9183C24.593 15.7719 24.4045 15.7004 24.1131 15.7004C24.0582 15.7004 23.9622 15.7106 23.8319 15.7311C23.7051 15.7549 23.5645 15.7889 23.424 15.8434C23.28 15.8979 23.1429 15.9626 23.0057 16.0408C22.8549 16.1294 22.728 16.2451 22.6321 16.3881C22.5292 16.5481 22.4126 16.7932 22.2789 17.1438C22.1521 17.474 21.9978 17.8621 21.8161 18.3013C21.6379 18.7336 21.4219 19.2068 21.1716 19.7072C20.9248 20.2008 20.6334 20.6979 20.3009 21.1949L20.006 21.6443L20.8254 22.3557L21.0002 22.0902C20.9865 22.1617 20.9728 22.2332 20.9625 22.3047L20.8185 23.1047C20.6574 24.0102 20.5683 24.783 20.5511 25.4026C20.534 26.0323 20.5957 26.5532 20.7294 26.9447C20.8699 27.3566 21.0928 27.663 21.3945 27.8468C21.6859 28.0272 22.0561 28.1191 22.4949 28.1191C22.9337 28.1191 23.3794 27.9353 23.8559 27.5745C24.3085 27.2306 24.7816 26.7745 25.2684 26.2162C25.7483 25.6647 26.242 25.0281 26.7391 24.32C27.195 23.6698 27.6544 23.0128 28.1207 22.3421L28.1378 22.3557L28.5492 21.7191L28.5423 21.7123L30.1776 19.1183C30.3593 19.3089 30.5684 19.4962 30.7981 19.6868C31.0998 19.9319 31.4084 20.1838 31.7203 20.4426C32.0254 20.6945 32.334 20.9668 32.6322 21.2494C32.9202 21.5217 33.1739 21.8179 33.383 22.1277C33.5887 22.4306 33.743 22.7574 33.839 23.1013C33.935 23.4349 33.9487 23.8026 33.8767 24.1906C33.8013 24.6094 33.6744 25.0043 33.4927 25.3549C33.3145 25.7055 33.0916 26.0119 32.8277 26.2672C32.5671 26.5191 32.2688 26.72 31.9397 26.8596C31.6141 26.9991 31.2609 27.0706 30.8941 27.0706C30.1742 27.0706 29.636 26.8936 29.2966 26.5498C28.9572 26.206 28.8475 25.7532 28.9503 25.1677C29.0086 24.8409 29.1286 24.5311 29.3068 24.2451C29.4885 23.9557 29.708 23.7038 29.9616 23.4996C30.2153 23.2919 30.4964 23.1251 30.8016 23.006C31.0998 22.8868 31.3981 22.8289 31.6895 22.8289H31.8506L31.9843 22.0664L31.806 22.0255C31.1307 21.8655 30.4862 21.9132 29.8657 22.1515C29.4885 22.2945 29.1389 22.4953 28.82 22.7438C28.5012 22.9957 28.2269 23.3055 28.0007 23.6596C27.7744 24.017 27.6236 24.4085 27.5516 24.8238C27.4762 25.2426 27.4899 25.6511 27.5893 26.0426C27.6853 26.4374 27.8704 26.7949 28.1344 27.1047C28.3984 27.4145 28.7412 27.6664 29.1526 27.8468C29.564 28.0272 30.0542 28.1191 30.613 28.1191C31.3775 28.1191 32.094 27.9694 32.7419 27.6766C33.3865 27.3838 33.9624 26.9889 34.4492 26.4987C34.936 26.0119 35.344 25.4468 35.6628 24.8204C35.9816 24.194 36.2045 23.5302 36.3245 22.8494C36.4205 22.2979 36.393 21.7974 36.2388 21.3583C36.0879 20.926 35.8548 20.5311 35.5462 20.1906C35.2411 19.857 34.8812 19.5506 34.4732 19.2783C34.0721 19.0128 33.6641 18.7609 33.2528 18.5362C32.8448 18.3115 32.4505 18.0936 32.0769 17.8826C31.7683 17.7089 31.4975 17.5285 31.2712 17.3481C31.3021 17.2834 31.3398 17.2119 31.3775 17.1302C31.4495 16.9906 31.5181 16.8374 31.5935 16.674C31.6689 16.5072 31.7375 16.3404 31.7958 16.177C31.8575 16.0068 31.902 15.84 31.9295 15.6834C31.9946 15.3191 31.9363 15.006 31.7546 14.754C31.5661 14.4919 31.2507 14.3557 30.8084 14.3557C30.5753 14.3557 30.3422 14.4068 30.1159 14.5055M23.688 11.8911C23.376 12.1532 23.184 12.48 23.1154 12.8545C23.0469 13.2528 23.1292 13.5966 23.3623 13.8689C23.5954 14.1447 23.9142 14.2843 24.305 14.2843C24.6959 14.2843 25.049 14.1515 25.3575 13.8928C25.6626 13.634 25.8546 13.3072 25.9232 12.9226C25.9917 12.5345 25.9129 12.1974 25.6866 11.9149C25.4569 11.6323 25.1381 11.4928 24.7336 11.4928C24.353 11.4928 24.0034 11.6255 23.688 11.8911ZM62.0843 11.8911C61.7723 12.1532 61.5803 12.48 61.5152 12.8545C61.4432 13.2528 61.5255 13.5966 61.7586 13.8723C61.9917 14.1481 62.3105 14.2877 62.7014 14.2877C63.0922 14.2877 63.4453 14.1549 63.7538 13.8962C64.059 13.6374 64.2509 13.3106 64.3195 12.9226C64.3881 12.5345 64.3092 12.1974 64.0829 11.9183C63.8533 11.6357 63.5344 11.4962 63.1299 11.4962C62.7494 11.4962 62.3963 11.6289 62.0843 11.8945M74.426 13.4332L74.9608 14.3455L78.8278 12.5072L82.0435 14.3421L82.8354 13.4774L79.1467 10.3932L74.4294 13.4332H74.426ZM53.1571 22.8766C52.8589 22.6485 52.6086 22.3591 52.4098 22.0153C52.2109 21.6715 52.0738 21.263 52.0018 20.8034C51.9298 20.3438 51.9401 19.8298 52.0395 19.2715C52.1492 18.6621 52.3446 18.1855 52.6189 17.8553C52.8829 17.5421 53.1469 17.3889 53.4245 17.3889C53.6165 17.3889 53.7879 17.474 53.9491 17.6511C54.1239 17.8417 54.2645 18.1243 54.3639 18.4885C54.4667 18.8664 54.5216 19.3362 54.5319 19.8809C54.5387 20.4255 54.4839 21.0485 54.3605 21.7328C54.3056 22.0426 54.2439 22.3455 54.1788 22.6417C54.1273 22.8698 54.0656 23.0945 53.9936 23.3089C53.6919 23.2136 53.4108 23.0706 53.1571 22.8766ZM75.2385 19.6221C75.499 19.023 75.7801 18.526 76.075 18.1413C76.3663 17.7668 76.6612 17.4911 76.956 17.3243C77.244 17.1609 77.5011 17.0791 77.7205 17.0791C77.9639 17.0791 78.149 17.1643 78.2827 17.3413C78.4199 17.5217 78.4576 17.7804 78.3993 18.1174C78.3342 18.4851 78.1525 18.8596 77.8611 19.2306C77.5559 19.6153 77.1994 19.983 76.7915 20.3268C76.3835 20.6706 75.9481 20.9906 75.4956 21.2732C75.1802 21.4706 74.8853 21.6409 74.6145 21.7872C74.7654 20.943 74.9745 20.2179 75.2282 19.6255M69.3282 9.69191L69.287 9.83149C68.9922 10.8289 68.6802 11.8434 68.3614 12.8443C68.0563 13.8043 67.7512 14.7609 67.4495 15.714H66.1536L65.6942 16.994H67.0552C66.7638 17.9881 66.493 18.9787 66.2496 19.9421C66.1365 20.3881 66.0302 20.8306 65.9342 21.2732L65.7662 21.5115C65.1491 22.4102 64.6075 23.166 64.1584 23.7583C63.7161 24.3404 63.3253 24.8102 63.0031 25.1506C62.6877 25.4843 62.4237 25.7191 62.218 25.8451C61.8923 26.046 61.6798 26.0528 61.4981 25.9643C61.4432 25.9404 61.3918 25.8587 61.3472 25.7362C61.2924 25.583 61.2684 25.3345 61.2718 25.0009C61.2752 24.657 61.3335 24.177 61.4398 23.5711C61.5906 22.7234 61.7586 21.8928 61.9437 21.1064C62.1323 20.303 62.3071 19.5813 62.4751 18.9515C62.6431 18.3115 62.7871 17.777 62.9071 17.3549C63.0305 16.9191 63.099 16.6502 63.1196 16.5379C63.171 16.2553 63.1539 16.0613 63.0648 15.9285C62.9688 15.7821 62.7802 15.7106 62.4888 15.7106C62.434 15.7106 62.338 15.7209 62.2077 15.7413C62.0774 15.7651 61.9403 15.7991 61.7997 15.8536C61.6558 15.9081 61.5152 15.9728 61.3815 16.0511C61.2307 16.1396 61.1038 16.2553 61.0078 16.3983C60.905 16.5583 60.7884 16.8034 60.6547 17.154C60.5279 17.4843 60.3736 17.8723 60.1919 18.3115C60.0171 18.7404 59.7976 19.2136 59.5474 19.7174C59.3005 20.2077 59.0092 20.7081 58.68 21.2017L58.4641 21.5081C58.1315 21.9847 57.751 22.3762 57.3293 22.6655C57.0208 22.8766 56.6985 23.0468 56.3591 23.1728C56.4345 22.9719 56.5031 22.7711 56.5614 22.5702C56.6608 22.2298 56.7431 21.8826 56.8048 21.5353C56.9693 20.6094 57.0036 19.7821 56.9042 19.0809C56.8048 18.3762 56.6162 17.777 56.342 17.3004C56.0609 16.817 55.7112 16.4494 55.3032 16.2043C54.5422 15.7481 53.7091 15.7277 52.924 16.0613C52.5675 16.2111 52.2349 16.4391 51.9298 16.7319C51.6281 17.0247 51.3642 17.3923 51.1379 17.8247C50.9116 18.257 50.7505 18.7609 50.6477 19.326C50.5277 20.0136 50.5243 20.6604 50.6374 21.246C50.7505 21.8349 50.9562 22.3626 51.2476 22.8187C51.539 23.2749 51.9024 23.6596 52.3309 23.966C52.7012 24.2281 53.1057 24.4221 53.5377 24.5447C53.2154 25.2834 52.8315 25.8757 52.3961 26.3115C51.9333 26.7745 51.4293 26.9957 50.8568 26.9957C50.4523 26.9957 50.1231 26.8698 49.8489 26.6077C49.5643 26.3387 49.3484 25.9711 49.1975 25.5115C49.0432 25.0417 48.961 24.4902 48.9438 23.8774C48.9301 23.2579 48.9815 22.6077 49.0981 21.9472C49.2901 20.8613 49.5643 19.9455 49.9072 19.2204C50.2534 18.4919 50.6031 17.8996 50.9493 17.4638C51.3436 16.9532 51.7653 16.5549 52.2007 16.2757L52.3104 16.2043L52.1527 15.4077H51.995C51.8407 15.4077 51.6179 15.4689 51.323 15.5915C51.0419 15.7072 50.7197 15.8843 50.3665 16.1157C50.0134 16.3438 49.6398 16.64 49.2558 16.994C48.8718 17.3481 48.5016 17.7668 48.1588 18.24C47.8125 18.7132 47.4971 19.2579 47.2194 19.8604C46.9863 20.3677 46.8012 20.9328 46.6709 21.5353C46.1224 22.3387 45.5979 23.04 45.1076 23.6221C44.6174 24.2043 44.1511 24.6843 43.726 25.0485C43.3044 25.406 42.9033 25.6749 42.533 25.8417C41.6691 26.2298 40.9252 26.1345 40.3938 25.7906C40.0852 25.5898 39.835 25.3072 39.6567 24.9464C39.4716 24.5787 39.3585 24.1294 39.3207 23.6085C39.283 23.0809 39.3207 22.4851 39.4339 21.8349C39.5813 21.0111 39.787 20.2826 40.0475 19.6732C40.3081 19.0638 40.5995 18.5566 40.9114 18.1583C41.22 17.7668 41.5354 17.4706 41.8474 17.2766C42.1456 17.0928 42.4233 16.9974 42.6701 16.9974C43.0233 16.9974 43.2461 17.086 43.3352 17.2596C43.4381 17.4672 43.4655 17.7157 43.4141 18.0085C43.3695 18.2638 43.2838 18.5226 43.157 18.7813C43.0335 19.04 42.8964 19.2613 42.7558 19.4349L42.701 19.503L42.8278 20.1974L43.0233 20.1532C43.3489 20.0817 43.654 19.9626 43.9352 19.8026C44.2129 19.6426 44.4597 19.4621 44.6757 19.2647C44.8951 19.0604 45.0768 18.8391 45.2139 18.6043C45.351 18.366 45.4436 18.1311 45.4847 17.903C45.5259 17.6749 45.5224 17.4366 45.4813 17.1915C45.4367 16.9362 45.327 16.6945 45.1556 16.4732C44.9842 16.2519 44.7374 16.0715 44.4288 15.9319C44.1203 15.7957 43.7226 15.7243 43.2427 15.7243C42.6221 15.7243 41.9674 15.9047 41.2988 16.2621C40.6406 16.6128 40.0098 17.1132 39.4236 17.7396C38.8408 18.366 38.3163 19.1285 37.8672 20.0068C37.4146 20.8885 37.089 21.8757 36.9004 22.9481C36.7804 23.6289 36.7564 24.2894 36.8353 24.9055C36.9141 25.5319 37.0924 26.0902 37.3701 26.5634C37.6512 27.0468 38.0386 27.4349 38.5185 27.714C39.0019 27.9932 39.5881 28.1362 40.2635 28.1362C40.74 28.1362 41.2611 28.0238 41.8062 27.7991C42.3445 27.5779 42.9273 27.2238 43.5341 26.7438C44.1374 26.2672 44.7785 25.6477 45.4436 24.8987C45.7761 24.5243 46.119 24.1089 46.4652 23.6562C46.4721 23.874 46.4926 24.0851 46.5201 24.2928C46.6195 25.0451 46.8457 25.7123 47.1851 26.2774C47.528 26.846 47.9942 27.3055 48.5701 27.6357C49.1461 27.9728 49.842 28.1396 50.6305 28.1396C51.1722 28.1396 51.7001 28.0443 52.2007 27.8638C52.6943 27.6834 53.164 27.4247 53.5925 27.1013C54.0176 26.7779 54.4187 26.3966 54.7821 25.9609C55.125 25.5489 55.4335 25.0996 55.694 24.6196C56.3557 24.4902 57.0036 24.2281 57.6207 23.84C58.2138 23.4655 58.7349 22.9685 59.1771 22.3626L59.1908 22.3762L59.3657 22.1106C59.352 22.1821 59.3383 22.2536 59.3246 22.3251L59.184 23.1251C59.0229 24.0306 58.9337 24.8034 58.9166 25.423C58.8994 26.0528 58.9612 26.5736 59.0949 26.9651C59.2354 27.377 59.4583 27.6834 59.7599 27.8672C60.0513 28.0477 60.4216 28.1396 60.8604 28.1396C61.2992 28.1396 61.7449 27.9557 62.2214 27.5949C62.6739 27.2511 63.147 26.7949 63.6339 26.24C64.1138 25.6885 64.6075 25.0485 65.1046 24.3438C65.2177 24.1804 65.3308 24.0204 65.444 23.857C65.3685 24.4187 65.3308 24.9191 65.3308 25.3481C65.3308 25.9745 65.4063 26.4987 65.5502 26.9038C65.7011 27.3294 65.9342 27.646 66.2393 27.8468C66.8358 28.2383 67.7135 28.286 68.6939 27.7106C69.167 27.4349 69.6744 27.0366 70.2092 26.5226C70.7372 26.0153 71.296 25.3889 71.8754 24.6604C71.9062 24.623 71.9371 24.5821 71.9713 24.5413C71.9782 24.6638 71.9919 24.7898 72.0056 24.9089C72.0845 25.5353 72.2627 26.0936 72.5404 26.5668C72.8215 27.0502 73.2089 27.4383 73.6889 27.7174C74.1723 27.9966 74.7585 28.1396 75.4339 28.1396C75.9104 28.1396 76.4315 28.0272 76.9869 27.8026C77.532 27.5813 78.1147 27.2272 78.7181 26.7472C79.3146 26.2706 79.9557 25.6511 80.6208 24.9021C81.2824 24.1566 81.9818 23.2443 82.7052 22.1923L83 21.743L82.1806 21.0349L81.8584 21.5251C81.3064 22.3353 80.7785 23.0434 80.2814 23.6323C79.7946 24.2111 79.3283 24.6911 78.8998 25.0553C78.4781 25.4128 78.077 25.6817 77.7068 25.8485C76.9046 26.2094 76.1984 26.1413 75.691 25.8757C75.4099 25.7294 75.1836 25.5217 74.995 25.246C74.8065 24.9702 74.6659 24.6332 74.5768 24.2383C74.4945 23.8706 74.4602 23.4553 74.4705 23.0094C75.2247 22.5974 75.9412 22.1923 76.6269 21.8043C77.3434 21.3957 77.9948 20.977 78.557 20.5583C79.1295 20.1362 79.606 19.6936 79.9797 19.2477C80.3637 18.7881 80.6037 18.2843 80.6996 17.7566C80.8025 17.1813 80.6825 16.6911 80.3465 16.3064C80.0106 15.9217 79.4655 15.7243 78.7318 15.7243C78.0359 15.7243 77.3228 15.9047 76.6166 16.2587C75.9173 16.6094 75.2556 17.1064 74.6454 17.7362C74.0386 18.3626 73.5003 19.1285 73.0478 20.0068C72.6638 20.7557 72.369 21.5864 72.1736 22.4749C71.9645 22.7608 71.7588 23.04 71.5497 23.3123C71.1177 23.8706 70.6995 24.3608 70.3086 24.7728C69.9178 25.1847 69.551 25.5149 69.2185 25.7566C68.7042 26.1311 68.334 26.1889 68.1248 25.9643C68.0631 25.8962 67.9774 25.7498 67.9363 25.423C67.8986 25.1336 67.8986 24.7455 67.9432 24.2621C67.9877 23.7719 68.0769 23.1489 68.2071 22.4136C68.2586 22.1208 68.3271 21.7702 68.406 21.3685C68.4882 20.9634 68.5842 20.5209 68.6939 20.0374C68.8036 19.554 68.9236 19.0434 69.0471 18.5021C69.1602 18.0119 69.2802 17.5115 69.4036 17.0077H72.1702L72.609 15.7277H69.7156C69.8527 15.1523 69.9864 14.5872 70.1201 14.0323C70.2709 13.4026 70.4149 12.8204 70.5555 12.2894L70.9257 10.88C71.032 10.4749 71.1143 10.1651 71.1726 9.95064L71.2377 9.70894H69.3316L69.3282 9.69191ZM9.29962 21.4196C9.59788 19.9796 10.2732 17.2153 10.5475 15.7549C15.1208 16.783 12.4605 21.6136 10.0813 21.6136C9.81386 21.6136 9.54988 21.5523 9.29962 21.4196ZM13.2524 15.217C18.9776 14.9174 18.8096 20.8477 16.6223 22.9617C14.4626 25.2936 10.5475 26.3864 8.10659 25.8247C8.23001 25.4774 8.44599 24.463 8.61397 23.7719C8.85738 23.8332 9.11107 23.8638 9.37161 23.8638C12.6216 23.8638 17.0063 19.2511 13.2524 15.2136M1.81576 18.4987C2.33343 16.0715 4.76063 14.7506 8.18201 15.2613C7.92489 16.7966 7.2221 19.2477 6.98898 20.7591C5.9468 20.463 4.72634 19.3906 5.01774 17.8519C3.03622 20.7285 5.4977 22.1889 6.32048 23.1217C6.20049 23.4928 5.8988 24.194 5.68282 24.766C3.90014 24.5345 1.43866 22.3728 1.81234 18.4953M12.5462 6.35574C15.5973 6.02894 17.0509 7.46553 17.164 8.65702C17.1743 11.4962 13.177 12.7694 11.4251 13.0519C11.5211 11.2919 12.1416 7.80936 12.5496 6.35574M10.6949 1.08936C10.287 1.58298 10.1772 3.51319 9.62187 3.57106C7.88718 3.86383 5.26115 5.15745 4.19497 6.22298C4.26353 6.65872 4.26696 7.01277 4.44523 7.54383C5.84738 7.42468 7.93175 6.79149 9.37847 6.7166C9.05622 7.92851 8.66197 11.6868 8.27458 12.8409C3.67387 12.0511 0.379331 15.36 0.0879298 18.4034C-0.429735 22.1787 1.37352 24.2179 4.56864 26.7813C4.87719 27.0604 4.9149 27.6936 3.835 28.9055C3.36533 29.3719 2.66254 29.8928 0.691301 29.9881C2.99165 31.4349 5.95023 29.4162 6.96499 27.9013C11.6171 28.994 18.7787 26.4102 19.6221 20.7217C20.2049 17.4979 18.7684 13.4264 14.8705 13.5183C17.6885 12.446 18.7959 11.394 18.7959 8.69106C18.6587 5.5183 15.0316 4.16681 13.1633 3.81617C13.5266 2.52255 14.6751 1.02809 15.7447 0.439149C15.2682 0.139574 14.5928 0 13.8798 0C12.6696 0 11.3463 0.401702 10.6983 1.09277" fill="#443548"/>
<path d="M46.7874 36.2962V37.0213H47.7062V39.9489H48.4432V37.0213H49.3586V36.2962H46.7874ZM30.6781 39.9489H31.4151V36.2894H30.6781V39.9489ZM44.9121 39.9489H45.6492V36.2894H44.9121V39.9489ZM50.5345 36.2894V39.9489H52.4406V39.217H51.2715V38.4851H52.2417V37.7532H51.2715V37.0213H52.3788V36.2894H50.5345ZM54.4872 37.0213H55.1352C55.6357 37.0213 55.6357 37.8383 55.1352 37.8383H54.4872V37.0213ZM53.7501 36.2894V39.9489H54.4872V38.5532H54.8438L55.5877 39.9489H56.4207L55.5671 38.4374C56.6504 38.1277 56.5202 36.2894 55.2071 36.2894H53.7536H53.7501ZM57.5281 39.9489H58.2651V36.2894H57.5281V39.9489ZM27.6029 38.4851H28.2577C28.4703 38.4851 28.628 38.6451 28.628 38.8494C28.628 39.0536 28.4703 39.217 28.2577 39.217H27.6029V38.4851ZM27.6029 37.0179H28.2577C28.4703 37.0179 28.5971 37.1813 28.5971 37.3855C28.5971 37.5898 28.4669 37.7532 28.2577 37.7532H27.6029V37.0179ZM26.8624 36.2859V39.9489H28.3194C28.916 39.9489 29.4062 39.4621 29.4062 38.8494C29.4062 38.5634 29.2656 38.2808 29.0257 38.1174C29.2553 37.9574 29.3548 37.6715 29.3651 37.3957C29.3788 36.7489 28.9742 36.2859 28.3194 36.2859H26.8624ZM33.7875 36.2655C33.1738 36.2962 32.7453 36.7659 32.7453 37.3821C32.7453 37.9983 33.2595 38.2876 33.8389 38.4987C34.0446 38.5702 34.2057 38.6621 34.2194 38.8732C34.24 39.074 34.0549 39.2272 33.8389 39.2408C33.6675 39.2579 33.2115 39.2442 32.7864 38.9481L32.6939 39.7174C33.1944 39.9728 33.6504 40 33.8595 39.983C34.5486 39.9489 34.9737 39.4825 34.9737 38.8732C34.9737 38.2638 34.48 37.9608 33.9075 37.7532C33.6949 37.6817 33.5167 37.5898 33.4961 37.3855C33.4824 37.1813 33.5989 36.9906 33.8629 36.977C33.976 36.9736 34.2092 36.9668 34.6137 37.1302L34.7063 36.4221C34.3257 36.2928 34.0892 36.2655 33.9143 36.2655C33.8698 36.2655 33.8286 36.2655 33.7909 36.2655M37.9185 39.9591C38.1756 39.9591 38.5013 39.8979 38.7276 39.8059L38.6282 39.0468C38.491 39.1183 38.2373 39.2102 37.9185 39.2102C36.4615 39.2102 36.4615 36.9804 37.9185 36.9804C38.2373 36.9804 38.419 37.0689 38.5562 37.1404L38.6419 36.3881C38.419 36.2928 38.1722 36.2451 37.9151 36.2451C35.4193 36.2451 35.4159 39.9591 37.9151 39.9591M41.7033 36.9804C43.1774 36.9804 43.1774 39.2442 41.7033 39.2442C40.2292 39.2442 40.2292 36.9804 41.7033 36.9804ZM41.7033 40C44.2368 40 44.2368 36.2281 41.7033 36.2281C39.1698 36.2281 39.1664 40 41.7033 40ZM22.0595 37.9166L22.3954 38.8664H21.7166L22.0629 37.9166H22.0595ZM22.0183 36.1566L20.4653 39.9489H21.3018L21.4458 39.554H22.6663L22.8171 39.9489H23.6467L22.0937 36.1566H22.0183ZM60.9769 37.9166L61.3129 38.8664H60.6341L60.9803 37.9166H60.9769ZM60.9357 36.1566L59.3828 39.9489H60.2192L60.3632 39.554H61.5837L61.7345 39.9489H62.5642L61.0112 36.1566H60.9357Z" fill="#443548"/>
</svg>
